<?xml version="1.0" encoding="utf-8"?>
<!-- Generator: Adobe Illustrator 22.0.1, SVG Export Plug-In . SVG Version: 6.00 Build 0)  -->
<svg version="1.1" id="Réteg_1" xmlns="http://www.w3.org/2000/svg" xmlns:xlink="http://www.w3.org/1999/xlink" x="0px" y="0px"
	 viewBox="0 0 24.8 24.8" style="enable-background:new 0 0 24.8 24.8;" xml:space="preserve">
<style type="text/css">
	.st0{fill:none;stroke:#57BC90;stroke-width:0.75;stroke-linecap:round;stroke-linejoin:round;stroke-miterlimit:10;}
	.st1{fill:#57BC90;}
</style>
<path class="st0" d="M19.1,12.3c0-0.8-0.2-1.6-0.4-2.3c-1-2.7-3.6-4.7-6.6-4.7c-3.9,0-7.1,3.2-7.1,7c0,2.4,1.3,4.6,3.2,5.9
	c1.1,0.7,2.4,1.2,3.9,1.2V21c-1.4,0-2.7-0.3-3.9-0.9c-2.8-1.4-4.7-4.4-4.7-7.7c0-4.8,3.9-8.7,8.7-8.7c4,0,7.3,2.7,8.3,6.3
	c0.2,0.7,0.3,1.5,0.3,2.3"/>
<polyline class="st0" points="20.8,12.3 22,12.3 19.9,14.4 17.9,12.3 19.1,12.3 "/>
<g>
	<path class="st1" d="M10.2,14v0.7H7.5v-0.6l1.3-1.4c0.1-0.1,0.2-0.2,0.3-0.3c0.1-0.1,0.1-0.2,0.1-0.3c0-0.1,0-0.2-0.1-0.3
		c-0.1-0.1-0.2-0.1-0.4-0.1c-0.2,0-0.3,0-0.5,0.1c-0.2,0.1-0.3,0.2-0.5,0.3l-0.3-0.6c0.5-0.3,0.9-0.5,1.4-0.5c0.2,0,0.4,0,0.6,0.1
		s0.3,0.2,0.4,0.3C10,11.7,10,11.9,10,12c0,0.2-0.1,0.4-0.2,0.6c-0.1,0.2-0.3,0.4-0.5,0.6L8.5,14H10.2z"/>
	<path class="st1" d="M13.3,13.3v0.6h-0.5v0.8H12v-0.8h-1.7v-0.6l1.1-2.2h0.8l-1,2.1H12v-0.8h0.7v0.8H13.3z"/>
	<path class="st1" d="M16.3,12.2c0.2,0.2,0.3,0.4,0.3,0.8v1.7h-0.8v-1.5c0-0.2,0-0.3-0.1-0.4c-0.1-0.1-0.2-0.1-0.4-0.1
		c-0.2,0-0.3,0.1-0.5,0.2c-0.1,0.1-0.2,0.3-0.2,0.5v1.3h-0.8v-3.8h0.8v1.5c0.2-0.3,0.5-0.5,0.9-0.5C15.9,12,16.1,12,16.3,12.2z"/>
</g>
</svg>
