<?xml version="1.0" encoding="utf-8"?>
<!-- Generator: Adobe Illustrator 22.0.1, SVG Export Plug-In . SVG Version: 6.00 Build 0)  -->
<svg version="1.1" id="Layer_1" xmlns="http://www.w3.org/2000/svg" xmlns:xlink="http://www.w3.org/1999/xlink" x="0px" y="0px"
	 viewBox="0 0 363.8 449.6" style="enable-background:new 0 0 363.8 449.6;" xml:space="preserve">
<style type="text/css">
	.st0{opacity:0.24;fill:#FFFFFF;enable-background:new    ;}
	.st1{opacity:0.24;fill:#57BC90;enable-background:new    ;}
	.st2{opacity:0.6;fill:#57BC90;enable-background:new    ;}
	.st3{fill:url(#SVGID_1_);}
	.st4{fill:#57BC90;}
	.st5{fill:#C48067;}
	.st6{fill:url(#SVGID_2_);}
	.st7{fill:url(#SVGID_3_);}
	.st8{fill:#FFFFFF;}
	.st9{fill:#1A382B;}
	.st10{fill:url(#SVGID_4_);}
	.st11{fill:#2A2D6B;}
	.st12{fill:url(#SVGID_5_);}
	.st13{fill:url(#SVGID_6_);}
	.st14{fill:url(#SVGID_7_);}
	.st15{fill:url(#SVGID_8_);}
	.st16{fill:url(#SVGID_9_);}
	.st17{fill:url(#SVGID_10_);}
	.st18{fill:url(#SVGID_11_);}
	.st19{fill:url(#SVGID_12_);}
	.st20{fill:url(#SVGID_13_);}
	.st21{fill:url(#SVGID_14_);}
	.st22{fill:url(#SVGID_15_);}
	.st23{fill:url(#SVGID_16_);}
</style>
<title>Smiley - Happy</title>
<path class="st0" d="M345.2,358.6c-2.3,3.5-4.6,6.8-7.1,10c-55.4,73.3-153.8,83.2-238.8,80.7c-24.8-0.7-50.9-1.9-72.1-14.9
	c-6.6-4.1-12.6-9.3-16.3-16.1c-3.3-6.1-4.8-13-5.9-19.8c-1.7-9.9-2.9-19.9-3.8-29.9c-3.3-40.1,0-80.5,9.9-119.5
	c4.2-16.5,9.6-32.9,10.1-49.9c0.9-31-14.7-61.1-11.2-91.9c3-26.7,20.1-50,40.6-67.3C84.1,11.8,128.7-3.6,172.2,0.7
	s85.1,29.2,107.3,67c25.1,42.7,24.1,96.4,46.6,140.6c10.4,20.4,25.6,38.4,32.9,60.1C369.2,298.2,362.4,332.3,345.2,358.6z"/>
<path class="st1" d="M338.1,368.6c-55.4,73.3-153.8,83.2-238.8,80.7c-24.8-0.7-50.9-1.9-72.1-14.9c-6.6-4.1-12.6-9.3-16.3-16.1
	c-3.3-6.1-4.8-13-5.9-19.8c-1.7-9.9-2.9-19.9-3.8-29.9L338.1,368.6z"/>
<path class="st2" d="M59,372c60.7-2.3,121.5-2.3,182.3,0.1c2.8,3.3-0.4,8.1-3.5,11.1l-33.7,33.4c-3.7,3.7-8,7.6-13.3,7.8
	c-5,0-9.4-3.4-10.7-8.2c-0.7-2.9-0.1-6.1-1.1-9c-2-5.5-9.1-7.1-15-6.8c-23.6,1.4-39.2,32.4-62.9,25.9c-10.6-2.9-19.4-12.9-25.9-21.3
	C73.2,402.5,57.7,372.1,59,372z"/>
<linearGradient id="SVGID_1_" gradientUnits="userSpaceOnUse" x1="90.8987" y1="65.9376" x2="109.2432" y2="65.9376">
	<stop  offset="0" style="stop-color:#E5C6D6"/>
	<stop  offset="0.42" style="stop-color:#EAD4D0"/>
	<stop  offset="1" style="stop-color:#F0E9CB"/>
</linearGradient>
<path class="st3" d="M91.7,76.6c-1-3.5-1-7.2-0.1-10.8c1.1-3.6,3-7,5.6-9.8c0,0,4.3-1.5,7.7-0.1s-1.4,7.6-1,10.6s3.3-5.3,5-4.6
	S106.2,74,103,75.4"/>
<path class="st4" d="M181.6,240.9c-6.9,3.6-14.1,6.5-21.5,8.8c-6.2,1.8-17.1,3.1-25.7,3c-6.8,0-12.2-0.9-12.5-3
	c-0.6-3.2-7.4-52.4-11.6-86.3c-0.7-5.6-1.3-10.9-1.8-15.4c-1.1-9.7-1.7-16.2-1.3-16.6c0.7-0.7,4.2-0.3,8.1,0.6
	c5.4,1.1,11.4,3,11.4,3l20-0.7c0,0,17.3,1.4,19.7,3S181.6,240.9,181.6,240.9z"/>
<path class="st4" d="M216,177.1c-0.4,1.7-1.2,3.3-2.1,4.8l0,0c-1.9,2.5-3.9,1.9-6,1.9c-3.8,0-26.2-5.1-34.9-8.8l0,0
	c-2-0.8-3.3-1.6-3.4-2.2c-0.8-3.2-2.3-3.3-2.3-3.3l-3.2-33.3c0,0,4.8,1.6,7.1,4.8S218.4,169.1,216,177.1z"/>
<path class="st4" d="M126.1,170.6c-0.1,0.7-0.3,1.4-0.7,2.1c0,0-10.7-2.8-15.1-9.3c-0.3-0.4-0.5-0.8-0.7-1.2
	c-3.5-6.6-20.3-34.2-23.4-45.7c0,0,0,0,0-0.1c-0.4-1.1-0.5-2.2-0.5-3.3c0.7-9.1,5.1-39,5.1-39s0.5-2.4,6.3-1.7
	c1.9,0.2,3.6,0.9,5.1,2l0,0c0.7,0.5,1.2,1.3,1.5,2.1l0.5,35.1l0.6,1.2l10.5,19.2l6.5,11.9C121.7,143.9,127.7,162.3,126.1,170.6z"/>
<path class="st5" d="M190.8,405.8c0,0,3.4,12.7,4.9,13.6s7.1-2,10.3-4.3s2.1-7.2,2.1-7.2l-1.4-3.9L190.8,405.8z"/>
<path class="st5" d="M106.2,399.6c0,0-6.1,17.3-5.5,19s8.1-0.8,12-0.5s5.4-5.8,5.4-5.8l1.4-3.9L106.2,399.6z"/>
<linearGradient id="SVGID_2_" gradientUnits="userSpaceOnUse" x1="125.1" y1="139.4643" x2="148.24" y2="139.4643">
	<stop  offset="0" style="stop-color:#E5C6D6"/>
	<stop  offset="0.42" style="stop-color:#EAD4D0"/>
	<stop  offset="1" style="stop-color:#F0E9CB"/>
</linearGradient>
<path class="st6" d="M125.1,125.4c0,0,2.4,10.4,1.6,14.3s5.5,15.1,13.5,15.1s8-13.5,8-15.1s-2.4-2.4-1.6-6.4
	C147.5,129.4,125.9,120.7,125.1,125.4z"/>
<linearGradient id="SVGID_3_" gradientUnits="userSpaceOnUse" x1="125.1" y1="132.8498" x2="147.88" y2="132.8498">
	<stop  offset="0" style="stop-color:#E5C6D6"/>
	<stop  offset="0.42" style="stop-color:#EAD4D0"/>
	<stop  offset="1" style="stop-color:#F0E9CB"/>
</linearGradient>
<path class="st7" d="M146.6,133.4c-0.6,3.1,0.7,4.3,1.3,5.4c-1.8,1.7-4.1,2.8-6.6,2.9c-4.8,0-11.9-4-15.1-11.1
	c-0.1-0.1-0.1-0.3-0.2-0.4c-0.4-2.6-0.9-4.7-0.9-4.7C125.9,120.7,147.4,129.4,146.6,133.4z"/>
<path class="st8" d="M126.8,138.3c0,0,6.4,15,11.9,16.6c0,0,1.5,0.8-2.5,3.2c-4,2.4-15.1-9.6-13.5-18.3c0.3-2.3,1.9-4.2,4-5.1
	L126.8,138.3z"/>
<path class="st8" d="M146.6,135c0,0,1.8,11.1-2.7,18.7c0,0,1.9,2.8,3.5,2.8s5.6-9.6,4-16.7C150.4,135.6,147.4,133.9,146.6,135z"/>
<path class="st9" d="M121.9,249.7l8.7,69.2l-27.1,89.6c0,0,5,2.8,15.3,2l36.8-88.6l0.5-56.3l12,48.6l22.9,94.7
	c0,0,11.6,2.6,18.5-2.4l-15.1-92.3l-12.8-73.3L121.9,249.7z"/>
<linearGradient id="SVGID_4_" gradientUnits="userSpaceOnUse" x1="212.29" y1="120.1338" x2="318.26" y2="120.1338" gradientTransform="matrix(1 0 0 -1 -108.76 445.89)">
	<stop  offset="0" style="stop-color:#57BC90"/>
	<stop  offset="1" style="stop-color:#1A382B;stop-opacity:0"/>
</linearGradient>
<path class="st10" d="M121.9,249.7l8.7,69.2l-27.1,89.6c0,0,5,2.8,15.3,2l36.8-88.6l0.5-56.3l12,48.6l22.9,94.7
	c0,0,11.6,2.6,18.5-2.4l-15.1-92.3l-12.8-73.3L121.9,249.7z"/>
<path class="st8" d="M119.1,414.6c-0.1,0-0.2-0.1-0.3-0.2c-0.1-0.2,0-0.4,0.2-0.4c2.9-1.3,2.6-2.3,2.6-2.3c-0.1-0.2,0-0.3,0.2-0.4
	c0.2-0.1,0.3,0,0.4,0.2c0.1,0.3,0.1,0.6,0,0.9c-0.3,0.8-1.3,1.6-2.9,2.3C119.2,414.6,119.1,414.6,119.1,414.6z"/>
<path class="st5" d="M151.4,102.3c0,0,1.6,20.7,0,26.3S145,139,140.2,139c-4.8,0-12-4-15.1-11.1c-3.1-7.1-4.8-24.7-4-27.1
	s5.6-9.9,18.3-8.8C148.2,92.8,151.4,99.2,151.4,102.3z"/>
<path class="st11" d="M122.1,112.5c0.7,1.6,3.3,1.7,4.6,0.5c1.2-1.4,1.7-3.2,1.3-5c-0.2-1.8-0.8-3.5-0.9-5.3c-0.1-0.4,0-0.8,0.3-1.2
	c0.3-0.3,0.7-0.4,1.1-0.3c2.4,0.1,5.2,1,6.9-0.7c1-1,1.3-2.8,2.6-3.3c1.1-0.4,2.3,0.3,3.3,0.9c2.5,1.3,5.4,1.6,8.1,0.8
	c1-0.1,1.7-0.9,1.6-1.9c0-0.1,0-0.2-0.1-0.3c-0.4-2.9-1.9-5.5-4.4-7.1c-2-1.2-4.3-2-6.7-2.3c-2.7-0.5-5.4-0.8-8.2-1
	c-1.5-0.2-3,0-4.3,0.5c-1.4,0.7-2.3,2-3.4,3c-1.6,1.5-3.6,2.5-4.7,4.3c-1,1.4-3.1,1.4-3.8,4.9c-0.6,3.1-1.1,6.2-1.6,9.3
	s0.8,6.3,1.4,9.3c1.3,6.3,1.3,6.3,3.6,8.5c1.4,1.2,2.9,2.2,4.6,2.9c0.6,0.4,1.3,0.5,1.9,0.4c0.6-0.2,0.9-1.3,0.3-1.6"/>
<path class="st5" d="M124.7,115.8c0,0-0.8-4.8-4-3.2s0.8,10.4,2.4,11.1c0.7,0.4,1.5,0.7,2.4,0.7"/>
<path class="st4" d="M201.7,181.7l-20.6-46.2c0,0,3.5-8.4,13.9-5.8c0,0,16.5,23.2,22.2,43.8C219.6,182.4,202.8,184,201.7,181.7z"/>
<circle class="st4" cx="151.8" cy="90.5" r="50.2"/>
<linearGradient id="SVGID_5_" gradientUnits="userSpaceOnUse" x1="180.1561" y1="536.2034" x2="371.6661" y2="553.8434" gradientTransform="matrix(0.9911 0.1335 0.1335 -0.9911 -158.3776 595.2908)">
	<stop  offset="0" style="stop-color:#FFFFFF;stop-opacity:0"/>
	<stop  offset="0.95" style="stop-color:#FFFFFF"/>
</linearGradient>
<path class="st12" d="M201.6,97.2c-3.7,27.5-29,46.7-56.4,43c-27.5-3.7-46.7-29-43-56.4c3.7-27.3,28.7-46.5,56-43.1l0.4,0
	C186,44.4,205.3,69.7,201.6,97.2C201.6,97.2,201.6,97.2,201.6,97.2z"/>
<linearGradient id="SVGID_6_" gradientUnits="userSpaceOnUse" x1="150.5373" y1="533.7609" x2="317.1373" y2="549.1208" gradientTransform="matrix(0.9911 0.1335 0.1335 -0.9911 -158.3776 595.2908)">
	<stop  offset="0" style="stop-color:#FFFFFF;stop-opacity:0"/>
	<stop  offset="0.95" style="stop-color:#FFFFFF"/>
</linearGradient>
<path class="st13" d="M201.6,97.2c-3,22.4-20.6,39.9-42.9,43h-0.4c-27.5-3.7-46.7-29-43-56.5c3-22.3,20.6-39.9,42.9-43l0.4,0
	C186,44.4,205.3,69.7,201.6,97.2C201.6,97.2,201.6,97.2,201.6,97.2z"/>
<path class="st4" d="M128,105l50.7-0.2c0,0-3.2,20-24.7,19.9C128.6,124.6,128,105,128,105z"/>
<linearGradient id="SVGID_7_" gradientUnits="userSpaceOnUse" x1="241.3639" y1="546.9041" x2="249.1439" y2="477.3341" gradientTransform="matrix(0.9911 0.1335 0.1335 -0.9911 -158.3776 595.2908)">
	<stop  offset="0" style="stop-color:#010101;stop-opacity:0"/>
	<stop  offset="0.95" style="stop-color:#010101"/>
</linearGradient>
<path class="st14" d="M128,105l50.7-0.2c0,0-3.2,20-24.7,19.9C128.6,124.6,128,105,128,105z"/>
<path class="st4" d="M124.3,80.7c-0.1-2.5,0.7-4.9,2.3-6.8c1.7-1.9,4.3-2.8,7.6-2.8c3.3,0,6,1,7.8,2.9c1.5,1.7,2.2,3.9,2.1,6.2
	l-2.6-0.2c0-1.5-0.5-3-1.5-4.2c-1.2-1.3-3.2-2-5.9-2.1c-2.6-0.1-4.4,0.6-5.7,1.9c-1.1,1.3-1.7,3-1.6,4.8L124.3,80.7z"/>
<linearGradient id="SVGID_8_" gradientUnits="userSpaceOnUse" x1="233.4105" y1="358.6028" x2="253.1882" y2="358.6028" gradientTransform="matrix(1 -9.773688e-03 -9.773688e-03 -1 -105.6605 436.8793)">
	<stop  offset="0" style="stop-color:#010101;stop-opacity:0"/>
	<stop  offset="0.95" style="stop-color:#010101"/>
</linearGradient>
<path class="st15" d="M124.3,80.7c-0.1-2.5,0.7-4.9,2.3-6.8c1.7-1.9,4.3-2.8,7.6-2.8c3.3,0,6,1,7.8,2.9c1.5,1.7,2.2,3.9,2.1,6.2
	l-2.6-0.2c0-1.5-0.5-3-1.5-4.2c-1.2-1.3-3.2-2-5.9-2.1c-2.6-0.1-4.4,0.6-5.7,1.9c-1.1,1.3-1.7,3-1.6,4.8L124.3,80.7z"/>
<path class="st4" d="M158.4,80.4c-0.1-2.5,0.7-4.9,2.3-6.8c1.7-1.9,4.3-2.8,7.6-2.8s6,1,7.8,2.9c1.5,1.7,2.2,3.9,2.1,6.2l-2.6-0.2
	c0.1-1.6-0.5-3.1-1.5-4.3c-1.2-1.3-3.2-2-5.9-2.1s-4.4,0.6-5.7,1.9c-1.1,1.3-1.7,3-1.6,4.8L158.4,80.4z"/>
<linearGradient id="SVGID_9_" gradientUnits="userSpaceOnUse" x1="267.5331" y1="358.5998" x2="287.3123" y2="358.5998" gradientTransform="matrix(1 -9.773688e-03 -9.773688e-03 -1 -105.6605 436.8793)">
	<stop  offset="0" style="stop-color:#010101;stop-opacity:0"/>
	<stop  offset="0.95" style="stop-color:#010101"/>
</linearGradient>
<path class="st16" d="M158.4,80.4c-0.1-2.5,0.7-4.9,2.3-6.8c1.7-1.9,4.3-2.8,7.6-2.8s6,1,7.8,2.9c1.5,1.7,2.2,3.9,2.1,6.2l-2.6-0.2
	c0.1-1.6-0.5-3.1-1.5-4.3c-1.2-1.3-3.2-2-5.9-2.1s-4.4,0.6-5.7,1.9c-1.1,1.3-1.7,3-1.6,4.8L158.4,80.4z"/>
<linearGradient id="SVGID_10_" gradientUnits="userSpaceOnUse" x1="175.0637" y1="123.1124" x2="192.7359" y2="123.1124">
	<stop  offset="0" style="stop-color:#E5C6D6"/>
	<stop  offset="0.42" style="stop-color:#EAD4D0"/>
	<stop  offset="1" style="stop-color:#F0E9CB"/>
</linearGradient>
<path class="st17" d="M187.8,114.2c-0.4-0.7-1-1.2-1.7-1.6c-0.9-0.3-1.9-0.2-2.7,0.1c-3,1.2-5.1,3.8-5.5,7c-0.3,2.2,0.4,4.4,0.4,6.7
	c0,0.5,0,0.9-0.2,1.3c-0.4,0.7-1.1,1.3-1.8,1.7c-0.7,0.5-1.3,1.3-1.1,2.1c0.3,0.7,1,1.2,1.8,1.3c0.8,0,1.5,0.2,2.3,0.5
	c0.3,0.3,0.7,0.5,1.1,0.6c0.3,0,0.6,0,0.9-0.1l8.6-2.1c3.9-0.9,3.1-4.1,2.4-7.3C191.4,120.7,189.9,117.2,187.8,114.2z"/>
<path class="st9" d="M225.7,417.1c0.6,0.3,1.2,0.8,1.5,1.4c0.7,1.5-0.4,3.2-1.8,4.2c-2.2,1.4-4.7,2.3-7.3,2.6
	c-7.2,1.3-14.6,1.7-21.9,1.1c-0.7,0-1.3-0.2-1.9-0.5c-0.5-0.5-0.9-1.1-1.1-1.8c-0.8-2.3-1.1-4.8-0.8-7.3c-0.1,0.8,8.1-1.3,8.8-1.7
	c2.3-1.1,4.6-4.5,6.8-5.1s6.2,2.2,8.4,3C219.6,414.1,222.8,415.5,225.7,417.1z"/>
<path class="st9" d="M133.3,421.9c0.6,0.4,1,1,1.3,1.6c0.6,1.5-0.9,3.1-2.3,3.9c-2.4,1.1-5,1.6-7.6,1.6c-7.3,0.4-14.6-0.2-21.8-1.7
	c-0.7-0.1-1.3-0.3-1.8-0.7c-0.5-0.5-0.8-1.2-0.9-1.9c-0.5-2.4-0.5-5,0.1-7.4c-0.2,0.8,8.2-0.3,8.9-0.5c2.4-0.8,5.1-3.9,7.4-4.1
	s5.8,3,7.9,4.1C127.7,418.1,130.6,419.9,133.3,421.9z"/>
<linearGradient id="SVGID_11_" gradientUnits="userSpaceOnUse" x1="301.071" y1="27.5547" x2="336.2184" y2="27.5547" gradientTransform="matrix(1 0 0 -1 -108.76 445.89)">
	<stop  offset="0" style="stop-color:#1A382B;stop-opacity:0"/>
	<stop  offset="1" style="stop-color:#57BC90"/>
</linearGradient>
<path class="st18" d="M225.7,417.1c0.6,0.3,1.2,0.8,1.5,1.4c0.7,1.5-0.4,3.2-1.8,4.2c-2.2,1.4-4.7,2.3-7.3,2.6
	c-7.2,1.3-14.6,1.7-21.9,1.1c-0.7,0-1.3-0.2-1.9-0.5c-0.5-0.5-0.9-1.1-1.1-1.8c-0.8-2.3-1.1-4.8-0.8-7.3c-0.1,0.8,8.1-1.3,8.8-1.7
	c2.3-1.1,4.6-4.5,6.8-5.1s6.2,2.2,8.4,3C219.6,414.1,222.8,415.5,225.7,417.1z"/>
<linearGradient id="SVGID_12_" gradientUnits="userSpaceOnUse" x1="208.6304" y1="25.0202" x2="243.5323" y2="25.0202" gradientTransform="matrix(1 0 0 -1 -108.76 445.89)">
	<stop  offset="0" style="stop-color:#1A382B;stop-opacity:0"/>
	<stop  offset="1" style="stop-color:#57BC90"/>
</linearGradient>
<path class="st19" d="M133.3,421.9c0.6,0.4,1,1,1.3,1.6c0.6,1.5-0.9,3.1-2.3,3.9c-2.4,1.1-5,1.6-7.6,1.6c-7.3,0.4-14.6-0.2-21.8-1.7
	c-0.7-0.1-1.3-0.3-1.8-0.7c-0.5-0.5-0.8-1.2-0.9-1.9c-0.5-2.4-0.5-5,0.1-7.4c-0.2,0.8,8.2-0.3,8.9-0.5c2.4-0.8,5.1-3.9,7.4-4.1
	s5.8,3,7.9,4.1C127.7,418.1,130.6,419.9,133.3,421.9z"/>
<linearGradient id="SVGID_13_" gradientUnits="userSpaceOnUse" x1="189.1416" y1="200.6463" x2="-383.6512" y2="82.7772">
	<stop  offset="0" style="stop-color:#010101;stop-opacity:0"/>
	<stop  offset="0.95" style="stop-color:#010101"/>
</linearGradient>
<path class="st20" d="M135.2,247.7l-13.3,2c0,0,0,0,0,0c-0.5-3.2-7.4-52.3-11.6-86.3c-0.3-0.4-0.5-0.8-0.7-1.2
	c-3.5-6.6-20.3-34.2-23.5-45.7c6.2,11.4,13.1,22.5,22.4,31.4c0.4,0.4,0.8,0.8,1.2,1.2c4.3,4,9.2,7.5,12.5,12.4
	c1.8,2.8,3.2,5.8,4,9.1c1.9,7.5,1.6,15.9,1.7,23.8C127.9,209.3,136.6,230.7,135.2,247.7z"/>
<linearGradient id="SVGID_14_" gradientUnits="userSpaceOnUse" x1="304.2587" y1="280.2928" x2="292.4587" y2="231.9827" gradientTransform="matrix(1 0 0 -1 -108.76 445.89)">
	<stop  offset="0" style="stop-color:#010101;stop-opacity:0"/>
	<stop  offset="0.95" style="stop-color:#010101"/>
</linearGradient>
<path class="st21" d="M216.7,178.1c-1.4,0.9-2.4,2.2-2.8,3.8l0,0c-1.9,2.5-3.9,1.9-6,1.9c-3.8,0-26.2-5.1-34.9-8.8l0,0
	c-1.5-2.9-2.1-6.4-1.8-11c12.9,4.6,26.2,8.2,39.6,10.9c1.1,0.2,5.8-0.1,6.5,0.8C217.8,176.4,217.2,177.6,216.7,178.1z"/>
<linearGradient id="SVGID_15_" gradientUnits="userSpaceOnUse" x1="313.9249" y1="299.6539" x2="202.2349" y2="275.8739" gradientTransform="matrix(1 0 0 -1 -108.76 445.89)">
	<stop  offset="0" style="stop-color:#010101;stop-opacity:0"/>
	<stop  offset="0.95" style="stop-color:#010101"/>
</linearGradient>
<path class="st22" d="M196.3,162.5c1.7,1.4,3.7,2.8,5.9,2.4c0.5-1.5-0.4-3.1-1.3-4.5c-2.7-3.9-5-8.2-6.8-12.6
	c-1.9-4.8-2.8-10-5.3-14.4c-0.3-0.8-1-1.2-1.8-1c-1.7,0.1-3.4,0.3-5.1,0.6c-0.5,0.1-1.1,0.3-1.2,0.8c0,0.4,0.1,0.7,0.3,1
	C186.2,144.3,187.9,155.4,196.3,162.5z"/>
<linearGradient id="SVGID_16_" gradientUnits="userSpaceOnUse" x1="217.1256" y1="349.4698" x2="115.7556" y2="360.6798" gradientTransform="matrix(1 0 0 -1 -108.76 445.89)">
	<stop  offset="0" style="stop-color:#010101;stop-opacity:0"/>
	<stop  offset="0.95" style="stop-color:#010101"/>
</linearGradient>
<path class="st23" d="M106,117.4c-2.9-2.6-6.1-5.4-6.9-9.2c-0.3-1.5-0.3-3.1-0.3-4.6c0.2-6.9,0.5-13.9,0.9-20.8
	c0.1-1.8-0.6-8,1.6-8.4c0.2,0,0.5,0,0.7,0.1l0,0c0.7,0.5,1.2,1.3,1.5,2.1l0.5,35.1l0.6,1.2C105,114.4,105.5,115.9,106,117.4z"/>
</svg>
