<svg width="24" height="24" viewBox="0 0 24 24" fill="none" xmlns="http://www.w3.org/2000/svg">
<path d="M8.33559 6.40072C7.80129 5.86643 6.93502 5.86643 6.40072 6.40072C5.86643 6.93502 5.86643 7.80129 6.40072 8.33558L9.90644 11.8413L6.40077 15.347C5.86647 15.8813 5.86647 16.7475 6.40077 17.2818C6.93507 17.8161 7.80134 17.8161 8.33563 17.2818L11.8413 13.7762L15.3469 17.2818C15.8812 17.8161 16.7475 17.8161 17.2818 17.2818C17.8161 16.7475 17.8161 15.8812 17.2818 15.3469L13.7762 11.8413L17.2818 8.33563C17.8161 7.80133 17.8161 6.93506 17.2818 6.40077C16.7475 5.86647 15.8813 5.86647 15.347 6.40077L11.8413 9.90644L8.33559 6.40072Z" fill="#7F7F7F"/>
</svg>
