<?xml version="1.0" encoding="utf-8"?>
<!-- Generator: Adobe Illustrator 22.0.1, SVG Export Plug-In . SVG Version: 6.00 Build 0)  -->
<svg version="1.1" id="Réteg_1" xmlns="http://www.w3.org/2000/svg" xmlns:xlink="http://www.w3.org/1999/xlink" x="0px" y="0px"
	 viewBox="0 0 40 40" style="enable-background:new 0 0 40 40;" xml:space="preserve">
<style type="text/css">
	.st0{fill:none;stroke:#57BC90;stroke-miterlimit:10;}
	.st1{fill:#57BC90;}
</style>
<circle class="st0" cx="20" cy="19.9" r="18.8"/>
<g>
	<path class="st1" d="M25.1,25.6v1.2h-9.9v-1.1l5.5-5.8c0.6-0.7,1.1-1.3,1.5-2c0.4-0.6,0.6-1.2,0.6-1.6c0-0.7-0.3-1.3-0.8-1.7
		c-0.5-0.4-1.3-0.6-2.3-0.6c-0.7,0-1.4,0.1-2.1,0.4c-0.7,0.3-1.3,0.7-1.9,1.3l-0.6-1c0.7-0.6,1.4-1.1,2.3-1.4
		c0.8-0.3,1.7-0.5,2.5-0.5c1.3,0,2.4,0.3,3.2,0.9c0.8,0.6,1.2,1.4,1.2,2.5c0,0.6-0.2,1.3-0.7,2.1c-0.5,0.8-1.1,1.6-1.9,2.4L17,25.6
		H25.1z"/>
</g>
</svg>
