<?xml version="1.0" encoding="utf-8"?>
<!-- Generator: Adobe Illustrator 22.0.1, SVG Export Plug-In . SVG Version: 6.00 Build 0)  -->
<svg version="1.1" id="Réteg_1" xmlns="http://www.w3.org/2000/svg" xmlns:xlink="http://www.w3.org/1999/xlink" x="0px" y="0px"
	 viewBox="0 0 1920 200" style="enable-background:new 0 0 1920 200;" xml:space="preserve">
<style type="text/css">
	.st0{fill:#FF5200;}
	.st1{fill:#FFFFFF;}
</style>
<polygon class="st1" points="1920,0 1920,99.6 1892.9,72.5 1865.4,100 1837.9,72.5 1810.5,99.9 1783.2,72.5 1755.7,100 1728.2,72.5 
	1700.8,99.9 1673.4,72.5 1645.9,100 1618.5,72.5 1591.1,99.9 1563.7,72.5 1536.2,100 1508.7,72.5 1481.3,99.9 1454,72.5 1426.5,100 
	1399,72.5 1371.6,99.9 1344.2,72.5 1316.8,100 1289.3,72.5 1261.9,99.9 1234.5,72.5 1207,100 1179.5,72.5 1152.1,99.9 1124.8,72.5 
	1097.3,100 1069.8,72.5 1042.4,99.9 1015,72.5 987.6,100 960.1,72.5 932.7,99.9 905.3,72.5 877.8,100 850.3,72.5 823,99.9 
	795.6,72.5 768.1,100 740.6,72.5 713.2,99.9 685.9,72.5 658.4,100 630.9,72.5 603.5,99.9 576.1,72.5 548.7,100 521.2,72.5 
	493.8,99.9 466.4,72.5 438.9,100 411.4,72.5 384,99.9 356.7,72.5 329.2,100 301.7,72.5 274.3,99.9 246.9,72.5 219.5,100 192,72.5 
	164.6,99.9 137.2,72.5 109.7,100 82.2,72.5 54.8,99.9 27.5,72.5 0,100 0,0 "/>
</svg>
