<?xml version="1.0" encoding="utf-8"?>
<!-- Generator: Adobe Illustrator 22.0.1, SVG Export Plug-In . SVG Version: 6.00 Build 0)  -->
<svg version="1.1" id="Layer_1" xmlns="http://www.w3.org/2000/svg" xmlns:xlink="http://www.w3.org/1999/xlink" x="0px" y="0px"
	 viewBox="0 0 501.3 363.1" style="enable-background:new 0 0 501.3 363.1;" xml:space="preserve">
<style type="text/css">
	.st0{opacity:0.24;fill:#57BC90;enable-background:new    ;}
	.st1{fill:#57BC90;}
	.st2{fill:url(#SVGID_1_);}
	.st3{fill:#FFFFFF;}
	.st4{fill:url(#SVGID_2_);}
	.st5{fill:url(#SVGID_3_);}
	.st6{fill:url(#SVGID_4_);}
	.st7{opacity:0.26;fill:url(#SVGID_5_);enable-background:new    ;}
	.st8{fill:none;}
	.st9{fill:url(#SVGID_6_);}
	.st10{opacity:0.26;fill:url(#SVGID_7_);enable-background:new    ;}
	.st11{fill:url(#SVGID_8_);}
	.st12{fill:url(#SVGID_9_);}
	.st13{fill:url(#SVGID_10_);}
	.st14{fill:url(#SVGID_11_);}
	.st15{fill:url(#SVGID_12_);}
	.st16{opacity:0.26;fill:url(#SVGID_13_);enable-background:new    ;}
	.st17{fill:url(#SVGID_14_);}
	.st18{fill:url(#SVGID_15_);}
	.st19{fill:url(#SVGID_16_);}
	.st20{fill:url(#SVGID_17_);}
	.st21{fill:url(#SVGID_18_);}
	.st22{fill:#606161;}
	.st23{opacity:0.26;fill:url(#SVGID_19_);enable-background:new    ;}
	.st24{fill:url(#SVGID_20_);}
	.st25{fill:url(#SVGID_21_);}
	.st26{opacity:0.26;fill:url(#SVGID_22_);enable-background:new    ;}
	.st27{opacity:0.24;}
	.st28{fill:url(#SVGID_23_);}
	.st29{opacity:0.26;fill:url(#SVGID_24_);enable-background:new    ;}
	.st30{fill:url(#SVGID_25_);}
	.st31{fill:url(#SVGID_26_);}
	.st32{fill:url(#SVGID_27_);}
</style>
<path class="st0" d="M135.9,352.9c95.3,15.7,192.8,13.2,287.2-7.3c12.1-2.6,24.5-5.7,34.6-12.8c8.8-6.1,15.4-14.8,21.1-23.8
	c21.3-33.7,31.2-78.2,12.6-113.6c-19.7-37.5-64-53.7-96.5-80.9c-25-20.9-43.1-48.5-62.8-74.4c-8.1-10.7-16.8-21.4-28.7-27.5
	c-9.8-5-20.9-6.6-31.8-8.1c-44.8-6.1-95.4-10.7-130.8,17.6C96.2,58.1,96.1,131.4,50.2,165.8c-8.8,6.6-18.9,11.4-27.2,18.6
	c-29.9,26-29.1,83.2-6.4,113.6C43.1,333.4,95,346.1,135.9,352.9z"/>
<polygon class="st1" points="343.8,82.5 332.9,83.3 331.9,70.1 219.1,199.2 157.4,148.3 10.5,282.4 3.2,274.4 157,133.9 
	217.9,184.1 322.8,63.9 308.1,68 305.2,57.5 341.1,47.6 "/>
<linearGradient id="SVGID_1_" gradientUnits="userSpaceOnUse" x1="139.5443" y1="306.6714" x2="311.1743" y2="-228.6486" gradientTransform="matrix(1 0 0 -1 0 366)">
	<stop  offset="0" style="stop-color:#010101;stop-opacity:0"/>
	<stop  offset="0.95" style="stop-color:#010101"/>
</linearGradient>
<polygon class="st2" points="343.8,82.5 332.9,83.3 331.9,70.1 219.1,199.2 157.4,148.3 10.5,282.4 3.2,274.4 157,133.9 
	217.9,184.1 322.8,63.9 308.1,68 305.2,57.5 341.1,47.6 "/>
<path class="st1" d="M53.6,242.8c8.6,5.6,14.4,14.8,22.3,21.4l-7,19l-4.6-5c-3.9-4.2-7.9-8.5-12.7-11.8s-10.5-5.5-16.2-5.1
	c0,0,2.9-17.6,4.4-19.4C44,236.8,48.1,239.3,53.6,242.8z"/>
<path class="st3" d="M42.3,243.6l-1.5,10.8c2,0.4,3.5,2.2,3.7,4.2c0,0,14.5,4.8,19.9,15.1c0,0,3.6-1,5,0.6l2.9-7
	c0,0-1.9-2.4-1.4-4.4c0,0-13.9-18.5-22.5-20.1C46.4,243.6,44.3,243.9,42.3,243.6z"/>
<rect x="135" y="56.8" class="st1" width="17.5" height="241.3"/>
<rect x="225.2" y="27.8" class="st1" width="20.4" height="270.3"/>
<rect x="299.1" y="27.8" class="st1" width="19" height="270.3"/>
<linearGradient id="SVGID_2_" gradientUnits="userSpaceOnUse" x1="147.5724" y1="278.0903" x2="138.7224" y2="68.3203" gradientTransform="matrix(1 0 0 -1 0 366)">
	<stop  offset="0" style="stop-color:#010101;stop-opacity:0"/>
	<stop  offset="0.95" style="stop-color:#010101"/>
</linearGradient>
<rect x="135" y="56.8" class="st4" width="17.5" height="241.3"/>
<linearGradient id="SVGID_3_" gradientUnits="userSpaceOnUse" x1="238.587" y1="279.3201" x2="229.727" y2="69.5601" gradientTransform="matrix(1 0 0 -1 0 366)">
	<stop  offset="0" style="stop-color:#010101;stop-opacity:0"/>
	<stop  offset="0.95" style="stop-color:#010101"/>
</linearGradient>
<rect x="225.2" y="27.8" class="st5" width="20.4" height="270.3"/>
<linearGradient id="SVGID_4_" gradientUnits="userSpaceOnUse" x1="318.7765" y1="250.7001" x2="309.9164" y2="40.9301" gradientTransform="matrix(1 0 0 -1 -7.14 340.95)">
	<stop  offset="0" style="stop-color:#010101;stop-opacity:0"/>
	<stop  offset="0.95" style="stop-color:#010101"/>
</linearGradient>
<rect x="299.1" y="27.8" class="st6" width="19" height="270.3"/>
<path class="st1" d="M113.4,148.8h255.3c7.9,0,14.4,6.4,14.4,14.4v0V318l0,0H99l0,0V163.2C99,155.2,105.4,148.8,113.4,148.8
	C113.4,148.8,113.4,148.8,113.4,148.8z"/>
<rect x="115.1" y="161.1" class="st3" width="252.7" height="144"/>
<linearGradient id="SVGID_5_" gradientUnits="userSpaceOnUse" x1="148.8008" y1="191.1582" x2="189.6608" y2="-20.5618" gradientTransform="matrix(1 0 0 -1 -7.15 340.95)">
	<stop  offset="0" style="stop-color:#010101;stop-opacity:0"/>
	<stop  offset="0.95" style="stop-color:#010101"/>
</linearGradient>
<path class="st7" d="M126.3,196.1l1,3.4c0,0,38.8-0.5,42.2-2c2.1-1,3.6-2.9,4.3-5.1l-1.4-8.7l-8.7-15.5L126.3,196.1z"/>
<path class="st1" d="M81.4,317.3H400l0,0v1c0,12.2-9.8,22-22,22H103.4c-12.2,0-22-9.8-22-22L81.4,317.3L81.4,317.3z"/>
<linearGradient id="SVGID_6_" gradientUnits="userSpaceOnUse" x1="240.4096" y1="33.97" x2="240.9196" y2="57.98" gradientTransform="matrix(1 0 0 -1 0 366)">
	<stop  offset="0" style="stop-color:#FFFFFF;stop-opacity:0"/>
	<stop  offset="0.95" style="stop-color:#FFFFFF"/>
</linearGradient>
<path class="st9" d="M81.4,317.3H400l0,0v1c0,12.2-9.8,22-22,22H103.4c-12.2,0-22-9.8-22-22L81.4,317.3L81.4,317.3z"/>
<path class="st1" d="M115.8,37.7c0.9-1.6,2-3.2,2.3-5s-0.6-4-2.3-4.5s-4,1.2-5.8,0.4c-1.2-0.5-1.7-1.8-2.3-2.9
	c-1.3-2.6-3.6-4.6-6.4-5.5c-2.8-0.9-5.9-0.2-8.1,1.7c-0.6,0.6-1.2,1.2-1.8,1.7c-1.6,0.8-3.6,0.7-5.1-0.3c-1.2-0.7-2.7-1.8-4-1.1
	c-0.6,0.4-1,1-1.1,1.7C80.5,27,82.8,30,83.8,33c1.3,3.9,0.5,8.2-0.4,12.3C82.3,51,80.9,57,77.3,61.5S67.9,68.6,64.1,73
	c-3.8,4.4-5.4,10.3-6.6,16.1c-0.5,1.7-0.5,3.5,0,5.2c0.5,1.1,1.3,2.2,2.3,3c3.7,3.8,7.7,7.8,12.7,9.6c5.4,2,11.4,1.4,17.2,1.3
	c4-0.1,8.1,0.1,12-0.6s7.9-2.3,10.5-5.3c2.2-2.9,3.5-6.4,3.6-10c0.1-3.6-0.2-7.2-0.8-10.8c-1-7.7-1.8-15.4-2.2-23.2
	C112.3,51.3,112.2,44.2,115.8,37.7z"/>
<linearGradient id="SVGID_7_" gradientUnits="userSpaceOnUse" x1="83.006" y1="289.4348" x2="113.5035" y2="289.4348" gradientTransform="matrix(1 0 0 -1 -7.15 340.95)">
	<stop  offset="0" style="stop-color:#010101;stop-opacity:0"/>
	<stop  offset="0.95" style="stop-color:#010101"/>
</linearGradient>
<path class="st10" d="M76.6,68.1c-0.6,1.2-1.1,2.7-0.3,3.7l9.3-6.6c0.2-0.2,0.4-0.3,0.7-0.3c0.3,0,0.5,0.3,0.6,0.6l2.3,4.6l4.4-6.3
	l9.2,9.1c0.8,0.8,2.2,1.7,3.1,0.9c0.7-0.6,0.4-1.9,0-2.8c-2.7-5.9-3.7-13.5-5.1-19.9c-0.6-2.5-0.9-5-1.4-7.5
	c-1.5-6.4-7.2-10.4-12-14.9c0.9,3,1.7,6.1,2.4,9.1l-2.3-1c-3.2,5.3-5.2,11.3-5.9,17.4C80.8,59.5,78.8,63.4,76.6,68.1z"/>
<linearGradient id="SVGID_8_" gradientUnits="userSpaceOnUse" x1="86.36" y1="300.2994" x2="104.4944" y2="300.2994" gradientTransform="matrix(1 0 0 -1 -7.15 340.95)">
	<stop  offset="0" style="stop-color:#E5C6D6"/>
	<stop  offset="0.42" style="stop-color:#EAD4D0"/>
	<stop  offset="1" style="stop-color:#F0E9CB"/>
</linearGradient>
<path class="st11" d="M88.8,37.8c1.7,0.5,3.4,1.1,5,1.8c1.6,0.8,2.9,2.1,3.4,3.8c0.2,0.7,0.1,1.4-0.3,1.9c-0.6,0.4-1.3,0.5-2,0.3
	c-4-0.7-7.9-1.7-11.6-3.1c-1-0.3-2-0.8-2.8-1.4c-0.8-0.7-1.3-1.7-1.2-2.8C80,32.9,86.2,37,88.8,37.8z"/>
<linearGradient id="SVGID_9_" gradientUnits="userSpaceOnUse" x1="85.4604" y1="294.2846" x2="103.5712" y2="294.2846" gradientTransform="matrix(1 0 0 -1 -7.15 340.95)">
	<stop  offset="0" style="stop-color:#E5C6D6"/>
	<stop  offset="0.42" style="stop-color:#EAD4D0"/>
	<stop  offset="1" style="stop-color:#F0E9CB"/>
</linearGradient>
<path class="st12" d="M87.8,43.8c1.7,0.5,3.4,1.1,5,1.8c1.6,0.8,2.9,2.1,3.4,3.8c0.3,0.7,0.1,1.4-0.3,1.9c-0.6,0.4-1.3,0.5-2,0.3
	c-4-0.7-7.8-1.7-11.6-3.1c-1-0.3-2-0.8-2.8-1.4c-0.8-0.7-1.3-1.7-1.2-2.8C79.1,38.9,85.3,43,87.8,43.8z"/>
<linearGradient id="SVGID_10_" gradientUnits="userSpaceOnUse" x1="84.3204" y1="288.9422" x2="102.4304" y2="288.9422" gradientTransform="matrix(1 0 0 -1 -7.15 340.95)">
	<stop  offset="0" style="stop-color:#E5C6D6"/>
	<stop  offset="0.42" style="stop-color:#EAD4D0"/>
	<stop  offset="1" style="stop-color:#F0E9CB"/>
</linearGradient>
<path class="st13" d="M86.8,49.2c1.7,0.5,3.4,1.1,5,1.8c1.6,0.8,2.9,2.1,3.4,3.8c0.3,0.7,0.1,1.4-0.3,1.9c-0.6,0.4-1.3,0.5-2,0.3
	c-4-0.7-7.9-1.7-11.6-3.1c-1-0.3-2-0.8-2.8-1.4c-0.8-0.7-1.3-1.7-1.2-2.8C78,44.2,84.2,48.3,86.8,49.2z"/>
<linearGradient id="SVGID_11_" gradientUnits="userSpaceOnUse" x1="83.08" y1="283.616" x2="101.2" y2="283.616" gradientTransform="matrix(1 0 0 -1 -7.15 340.95)">
	<stop  offset="0" style="stop-color:#E5C6D6"/>
	<stop  offset="0.42" style="stop-color:#EAD4D0"/>
	<stop  offset="1" style="stop-color:#F0E9CB"/>
</linearGradient>
<path class="st14" d="M85.5,54.5c1.7,0.5,3.4,1.1,5,1.8c1.6,0.8,2.9,2.1,3.4,3.8c0.2,0.7,0.1,1.4-0.3,1.9c-0.6,0.4-1.3,0.5-2,0.3
	c-4-0.7-7.9-1.7-11.7-3.1c-1-0.3-2-0.8-2.8-1.4c-0.8-0.7-1.3-1.7-1.2-2.8C76.8,49.5,82.9,53.6,85.5,54.5z"/>
<linearGradient id="SVGID_12_" gradientUnits="userSpaceOnUse" x1="97.4699" y1="285.1717" x2="134.6249" y2="285.1717" gradientTransform="matrix(1 0 0 -1 -7.15 340.95)">
	<stop  offset="0" style="stop-color:#E5C6D6"/>
	<stop  offset="0.42" style="stop-color:#EAD4D0"/>
	<stop  offset="1" style="stop-color:#F0E9CB"/>
</linearGradient>
<path class="st15" d="M118.7,46.5c-5.2-7.8-14.9-11.6-24.2-12.8c-1.6-0.2-3.7,0-4.1,1.5c-0.1,0.6-0.1,1.3,0.2,1.8
	c1.6,3.3,6.6,4,8.1,7.3c0.4,1.1,0.7,2.3,0.7,3.4c0.8,10,3.8,20.4,11.3,27.2c1.2,1.2,2.6,2.1,4.3,2.6c1.4,0.3,2.8,0.3,4.2,0.1
	c2-0.2,4-0.4,6-0.7s2.6-0.5,2.3-2.5c-0.6-3.2-2-6.3-2.7-9.5C123.3,58.7,122.4,52,118.7,46.5z"/>
<path class="st3" d="M130.4,74.3c0.1,0.2,0.1,0.5,0.1,0.8c-0.1,0.3-0.3,0.5-0.6,0.6l-12,7.8c-0.5,0.4-1,0.6-1.6,0.7
	c-0.6-0.1-1.1-0.3-1.5-0.6c-2.5-1.8-4.3-4.3-5.1-7.3c-0.1-0.3-0.1-0.6,0-0.8c0.2-0.2,0.4-0.4,0.7-0.4c4.7-1.6,8.6-5.3,13-7.6
	C128.5,64.6,129.1,69.9,130.4,74.3z"/>
<path class="st1" d="M375.6,33.8c-0.9-1.3-1.6-2.8-2-4.4c-0.3-1.6,0.5-3.5,2-3.9s3.5,1,5.1,0.3c1-0.4,1.5-1.6,2-2.6
	c1.2-2.3,3.2-4,5.6-4.8c2.5-0.8,5.2-0.2,7.1,1.5c0.5,0.6,1,1.1,1.6,1.5c1.4,0.7,3.2,0.6,4.5-0.3c1.1-0.7,2.4-1.6,3.5-1
	c0.5,0.4,0.9,0.9,0.9,1.5c0.6,2.8-1.4,5.4-2.3,8.1c-1.1,3.5-0.4,7.2,0.3,10.8c1,5,2.2,10.3,5.4,14.3s8.2,6.2,11.6,10.1
	s4.8,9.1,5.8,14.2c0.4,1.5,0.4,3.1,0,4.6c-0.5,1-1.2,1.9-2,2.7c-3.3,3.4-6.7,6.8-11.1,8.5c-4.8,1.8-10,1.3-15.1,1.2
	c-3.5,0.1-7.1-0.1-10.6-0.5c-3.5-0.6-7-2-9.2-4.7c-2-2.5-3.1-5.6-3.1-8.8c-0.1-3.2,0.2-6.3,0.7-9.5c0.9-6.8,1.5-13.6,1.9-20.4
	C378.7,45.7,378.8,39.5,375.6,33.8z"/>
<linearGradient id="SVGID_13_" gradientUnits="userSpaceOnUse" x1="381.81" y1="282.3733" x2="420.84" y2="282.3733" gradientTransform="matrix(1 0 0 -1 -7.15 340.95)">
	<stop  offset="0" style="stop-color:#010101;stop-opacity:0"/>
	<stop  offset="0.95" style="stop-color:#010101"/>
</linearGradient>
<path class="st16" d="M379.6,29.5c1-0.5,1.9,0.6,2.8,1.3c2.2,1.8,5.5,1.5,7.3-0.7c0.7-0.8,1.1-1.8,1.2-2.9c1.1,0.3,2.1,1.1,2.6,2.2
	c0.2,0.5,0.4,1,0.9,1.2c0.3,0.1,0.6,0,0.8-0.1c1.4-0.7,2.6-1.8,3.5-3.2l1.8-2.4c1.4,1.5,1,3.9,0.5,5.9c-1,5.3-0.7,10.7,1,15.9
	c0.4,1.3,1,2.5,1.8,3.6c1.1,1.3,2.4,2.5,3.8,3.5c2.4,2,4.4,4.4,6,7.2l-10.5-5c-1.2-0.6-2.8-1.1-3.7-0.2c-0.5,0.6-0.7,1.3-0.8,2
	c-0.5,2.7-1.5,5.4-2.9,7.8l-1.3-7.8c0-0.8-0.4-1.5-0.9-2c-1.2-0.9-2.8,0.5-3.5,1.9c-1.5,3.2-1.5,6.9-2.9,10.2
	c-0.9,2.1-2.3,4-3.2,6.1c-1.8,4.3-1.6,9.1,0.7,13.2c0.5,1,1.2,2,1,3.1c-0.4,1.3-1.6,2.2-3,2c-1.3-0.2-2.5-0.9-3.4-1.9
	c-3.3-3.3-4.8-8.2-4.8-12.9c0.2-3.7,0.7-7.4,1.7-11c0.8-3.6,1.8-7.2,3.2-10.7c1.8-4.2,4.6-8.2,4.6-12.8c0-3-1.4-5.3-2.8-7.8
	C380.7,34,377.5,30.5,379.6,29.5z"/>
<linearGradient id="SVGID_14_" gradientUnits="userSpaceOnUse" x1="-2316.9983" y1="304.5644" x2="-2301.0461" y2="304.5644" gradientTransform="matrix(-1 0 0 -1 -1909.23 340.95)">
	<stop  offset="0" style="stop-color:#E5C6D6"/>
	<stop  offset="0.42" style="stop-color:#EAD4D0"/>
	<stop  offset="1" style="stop-color:#F0E9CB"/>
</linearGradient>
<path class="st17" d="M399.3,33.9c-1.5,0.4-3,1-4.4,1.6c-1.4,0.7-2.5,1.9-3,3.4c-0.2,0.6-0.1,1.2,0.3,1.7c0.5,0.3,1.2,0.4,1.8,0.2
	c3.5-0.6,6.9-1.5,10.3-2.7c0.9-0.3,1.7-0.7,2.5-1.3c0.7-0.6,1.1-1.5,1.1-2.5C407,29.5,401.6,33.1,399.3,33.9z"/>
<linearGradient id="SVGID_15_" gradientUnits="userSpaceOnUse" x1="-2317.79" y1="299.2644" x2="-2301.8394" y2="299.2644" gradientTransform="matrix(-1 0 0 -1 -1909.23 340.95)">
	<stop  offset="0" style="stop-color:#E5C6D6"/>
	<stop  offset="0.42" style="stop-color:#EAD4D0"/>
	<stop  offset="1" style="stop-color:#F0E9CB"/>
</linearGradient>
<path class="st18" d="M400.1,39.2c-1.5,0.4-3,1-4.4,1.6c-1.4,0.7-2.5,1.9-3,3.4c-0.2,0.6-0.1,1.2,0.3,1.7c0.5,0.3,1.2,0.4,1.8,0.2
	c3.5-0.6,6.9-1.5,10.2-2.7c0.9-0.3,1.7-0.7,2.5-1.3c0.7-0.6,1.1-1.5,1.1-2.4C407.9,34.8,402.4,38.4,400.1,39.2z"/>
<linearGradient id="SVGID_16_" gradientUnits="userSpaceOnUse" x1="-2318.8083" y1="294.5626" x2="-2302.8564" y2="294.5626" gradientTransform="matrix(-1 0 0 -1 -1909.23 340.95)">
	<stop  offset="0" style="stop-color:#E5C6D6"/>
	<stop  offset="0.42" style="stop-color:#EAD4D0"/>
	<stop  offset="1" style="stop-color:#F0E9CB"/>
</linearGradient>
<path class="st19" d="M401.1,43.9c-1.5,0.4-3,1-4.4,1.6c-1.4,0.7-2.5,1.9-3,3.4c-0.2,0.6-0.1,1.2,0.3,1.7c0.5,0.3,1.2,0.4,1.8,0.2
	c3.5-0.6,6.9-1.5,10.2-2.7c0.9-0.3,1.7-0.7,2.5-1.3c0.7-0.6,1.2-1.5,1.1-2.5C408.9,39.5,403.4,43.1,401.1,43.9z"/>
<linearGradient id="SVGID_17_" gradientUnits="userSpaceOnUse" x1="-2319.8701" y1="289.8748" x2="-2303.918" y2="289.8748" gradientTransform="matrix(-1 0 0 -1 -1909.23 340.95)">
	<stop  offset="0" style="stop-color:#E5C6D6"/>
	<stop  offset="0.42" style="stop-color:#EAD4D0"/>
	<stop  offset="1" style="stop-color:#F0E9CB"/>
</linearGradient>
<path class="st20" d="M402.2,48.6c-1.5,0.4-2.9,1-4.3,1.6c-1.4,0.7-2.5,1.9-3,3.4c-0.2,0.6-0.1,1.2,0.3,1.7c0.5,0.3,1.2,0.4,1.8,0.2
	c3.5-0.6,6.9-1.5,10.2-2.7c0.9-0.3,1.7-0.7,2.5-1.3c0.7-0.6,1.2-1.5,1.1-2.5C409.9,44.2,404.5,47.8,402.2,48.6z"/>
<linearGradient id="SVGID_18_" gradientUnits="userSpaceOnUse" x1="-2307.2" y1="291.2252" x2="-2274.4961" y2="291.2252" gradientTransform="matrix(-1 0 0 -1 -1909.23 340.95)">
	<stop  offset="0" style="stop-color:#E5C6D6"/>
	<stop  offset="0.42" style="stop-color:#EAD4D0"/>
	<stop  offset="1" style="stop-color:#F0E9CB"/>
</linearGradient>
<path class="st21" d="M373,41.6c4.6-6.9,13.1-10.2,21.3-11.2c1.4-0.2,3.2,0,3.6,1.3c0.1,0.5,0.1,1.1-0.2,1.6c-1.4,3-5.8,3.5-7.2,6.5
	c-0.4,1-0.6,2-0.6,3c-0.7,8.8-3.4,18-9.9,23.9c-1,1.1-2.3,1.9-3.8,2.3c-1.2,0.2-2.4,0.3-3.7,0.1c-1.8-0.2-3.5-0.3-5.3-0.6
	c-1.7-0.3-2.3-0.4-2-2.2c0.5-2.8,1.8-5.5,2.4-8.3C368.9,52.3,369.8,46.4,373,41.6z"/>
<path class="st3" d="M359.7,71.5c0,0.3,0,0.5,0.1,0.8c0.2,0.2,0.4,0.4,0.7,0.5l14.4,5.6c0.6,0.3,1.2,0.4,1.9,0.3
	c0.6-0.2,1.1-0.5,1.5-1c2.2-2.4,3.6-5.5,3.8-8.8c0.1-0.3,0-0.6-0.2-0.9c-0.2-0.2-0.5-0.3-0.8-0.3c-5.3-0.6-10.3-3.7-15.4-5.1
	C359.5,61,360.1,66.6,359.7,71.5z"/>
<path class="st22" d="M303,305H187.9c0-2.6,3.4-15.8,5.9-17.7s8.3-0.7,11.5-0.7c10.1,0,20.1-0.1,30.2-0.4
	c10.1-0.4,20.1-0.9,30.2-1.6c2.8-0.2,28.2-3.8,28.8-2.5C297.2,287.5,303,302.5,303,305z"/>
<path class="st1" d="M122.2,196.6l40.9-2.3c1.7-0.1,3.6-0.3,4.7-1.6s0.9-3.2,0.6-4.9c-1.2-9.7-1.4-19.5-0.4-29.2
	c0.3-3.5,0.9-7.2,2.9-10.1s6-4.7,9.2-3.2c0.5,0.3,1.1,0.6,1.7,0.7c2,0.2,2.9-2.9,1.6-4.4s-3.5-1.8-5.5-2
	c-10.8-0.8-21.6-0.4-32.4-1.2c-6.2-0.5-12.5-2.5-18.3,0.7C109.7,149,118.6,181.5,122.2,196.6z"/>
<linearGradient id="SVGID_19_" gradientUnits="userSpaceOnUse" x1="147.79" y1="119.36" x2="241.43" y2="119.36" gradientTransform="matrix(1 0 0 -1 -7.15 340.95)">
	<stop  offset="0" style="stop-color:#010101;stop-opacity:0"/>
	<stop  offset="0.95" style="stop-color:#010101"/>
</linearGradient>
<path class="st23" d="M146.4,138.8l-5.8-0.7c0,0,7.1,21.5,15.3,34.1s19.1,33.4,19.4,38.5s13.3,56.9,8.5,71.9s-10.2,22.6-10.2,22.6
	h60.6l-3.4-106.4l-80.9-60"/>
<linearGradient id="SVGID_20_" gradientUnits="userSpaceOnUse" x1="162.3221" y1="216.876" x2="117.3721" y2="83.736" gradientTransform="matrix(1 0 0 -1 -7.15 340.95)">
	<stop  offset="0" style="stop-color:#FFFFFF;stop-opacity:0"/>
	<stop  offset="0.95" style="stop-color:#FFFFFF"/>
</linearGradient>
<path class="st24" d="M125,140.6c0,0-8.3,5.3,2,43.4c0,0,4-0.1,3.9,4.5l26.8-2c0,0-1.5-3.7,3.4-4.7c0,0-7.3-27.3-5.8-32.4
	c0.9-3.2,0.5-6.7-1-9.7c0,0-13.1-1.5-15.3-1.7S131.3,135.5,125,140.6z"/>
<path class="st1" d="M170.3,49.7c5.3-2.6,11.6-2,17.5-2.7c6.3-0.7,12.3-2.8,17.6-6.2c-0.4,9.2,0.8,18.4,3.6,27.1
	c-5.5-0.2-11.3-0.3-16,2.5c-4.1,2.5-6.8,7.1-11,9.5c-4.7,2.8-10.6,2.5-16,2.1c1.7-3.6-0.6-7.7-3-10.9c-2.9-3.9-5.2-7.2-2.7-11.7
	C162.7,55.3,166.2,51.9,170.3,49.7z"/>
<linearGradient id="SVGID_21_" gradientUnits="userSpaceOnUse" x1="184.3205" y1="302.2499" x2="284.7705" y2="29.4899" gradientTransform="matrix(1 0 0 -1 -7.15 340.95)">
	<stop  offset="0" style="stop-color:#010101;stop-opacity:0"/>
	<stop  offset="0.95" style="stop-color:#010101"/>
</linearGradient>
<path class="st25" d="M171.8,50.4c4.7-2.3,10.3-1.8,15.5-2.4c5.5-0.6,10.9-2.5,15.6-5.5c-0.4,8.1,0.7,16.3,3.2,24
	c-4.9-0.2-10-0.3-14.1,2.2c-3.7,2.2-6,6.3-9.7,8.4c-4.2,2.5-9.4,2.2-14.2,1.8c1.5-3.2-0.6-6.8-2.7-9.6c-2.6-3.5-4.6-6.4-2.4-10.3
	C165,55.3,168.1,52.4,171.8,50.4z"/>
<path class="st1" d="M423.3,60.1c-0.8-4.9,0.9-10.5,5.2-12.9c2.6-1.4,5.6-1.5,8.5-1.6l19.9-0.5c-0.7,6.3,1,12.6,4.7,17.7
	c3.5,4.6,8.5,8,11.7,12.8c5.2,8.3,4.3,19.1-2.4,26.3c-9.4-1.3-18.9-0.7-28,1.7c2-5.4-1.5-11.3-5.5-15.6
	C430.8,80.7,424.9,70.2,423.3,60.1z"/>
<linearGradient id="SVGID_22_" gradientUnits="userSpaceOnUse" x1="492.2917" y1="285.7268" x2="334.2717" y2="198.6368" gradientTransform="matrix(1 0 0 -1 -7.15 340.95)">
	<stop  offset="0" style="stop-color:#010101;stop-opacity:0"/>
	<stop  offset="0.95" style="stop-color:#010101"/>
</linearGradient>
<path class="st26" d="M426.5,62.3c-1-4.6,0.2-9.9,3.8-12.4c2.1-1.5,4.8-1.8,7.3-2l17.2-1.6c-0.3,5.9,1.5,11.7,5.1,16.4
	c3.3,4.2,7.8,7,10.9,11.4c5,7.2,4.8,18.1-0.5,25c-8.2-0.7-16.4,0.3-24.2,3.1c1.5-5.2-2-10.6-5.7-14.4
	C434.1,81.3,428.4,71.7,426.5,62.3z"/>
<path class="st1" d="M32.7,189.1c-0.4,0.2-0.7,0.6-0.8,1.1c0,0.6,0.2,1.2,0.6,1.6c4.1,5.4,8.5,10.6,13.2,15.5c0.4,0.5,0.9,0.8,1.4,1
	c0.7,0.1,1.3-0.1,1.9-0.4l8.3-3.8c2.9-1.4,5.9-2.8,8.2-5.1c4.5-4.6,5-11.6,5.3-18c-6.2-5.4-12.1-16.1-19.8-11.1
	C44.5,174.1,39.1,183.8,32.7,189.1z"/>
<path class="st1" d="M413.2,259.2c5.8,4.7,11.9,8.9,18.3,12.6c2.9-12.6,15.1-20.1,25.5-26.3C437.9,223.3,417.6,262.7,413.2,259.2z"
	/>
<g class="st27">
	<path class="st1" d="M404,215.1v-8.4c-11-0.9-17.4-7.4-18.4-16.2h8.1c0.9,5.2,5.1,9.1,10.3,9.8v-22.2c-12.2-3.7-17-8.3-17-16.8
		c0-9.3,7.1-15.4,17-16.1v-6.2h5.2v6.3c12.2,1.2,16.1,9.1,16.7,14.8H418c-1-3.8-3.2-7.4-8.8-8.4v20c14,4,18.1,9.9,18.1,18.1
		c0,10.2-6.8,16.1-18.1,17v8.4L404,215.1z M404,170.2v-18.6c-6.6,0.6-9,4.5-9,8.9S397.1,167.8,404,170.2z M409.2,179.7v20.7
		c6.3-0.6,9.7-3.9,9.7-9.8C418.9,185.8,416.9,182.4,409.2,179.7L409.2,179.7z"/>
</g>
<path class="st3" d="M406.5,214.5v-8.4c-11-0.9-17.4-7.4-18.4-16.2h8.1c0.9,5.2,5.1,9.1,10.3,9.8v-22.2c-12.2-3.7-17-8.3-17-16.8
	c0-9.3,7.1-15.4,17-16.1v-6.2h5.2v6.3c12.2,1.2,16.1,9.1,16.7,14.8h-7.9c-1-3.8-3.2-7.4-8.8-8.4v20c14,4,18.1,9.9,18.1,18.1
	c0,10.2-6.8,16.1-18.1,17v8.4L406.5,214.5z M406.5,169.5v-18.6c-6.6,0.6-9,4.5-9,8.9S399.6,167.1,406.5,169.5z M411.8,179.1v20.7
	c6.3-0.6,9.7-3.9,9.7-9.8C421.5,185.1,419.4,181.7,411.8,179.1L411.8,179.1z"/>
<g class="st27">
	<path class="st1" d="M403.7,89.4v-3c-3.9-0.3-6.2-2.6-6.5-5.7h2.9c0.3,1.8,1.8,3.2,3.6,3.5v-7.8c-4.3-1.3-6-2.9-6-5.9
		c0-3.3,2.5-5.4,6-5.7v-2.2h1.8v2.2c4.3,0.4,5.7,3.2,5.9,5.2h-2.8c-0.3-1.6-1.5-2.8-3.1-3V74c5,1.4,6.4,3.5,6.4,6.4
		c0,3.6-2.4,5.7-6.4,6v3L403.7,89.4z M403.7,73.5v-6.6c-2.3,0.2-3.2,1.6-3.2,3.1S401.2,72.7,403.7,73.5z M405.5,76.9v7.3
		c2.2-0.2,3.4-1.4,3.4-3.5C408.9,79,408.2,77.8,405.5,76.9z"/>
</g>
<path class="st3" d="M404.6,89.2v-3c-3.9-0.3-6.1-2.6-6.5-5.7h2.9c0.3,1.8,1.8,3.3,3.6,3.5v-7.8c-4.3-1.3-6-2.9-6-5.9
	c0-3.3,2.5-5.4,6-5.7v-2.2h1.9v2.2c4.3,0.4,5.7,3.2,5.9,5.2h-2.8c-0.3-1.6-1.5-2.8-3.1-3v7.1c5,1.4,6.4,3.5,6.4,6.4
	c0,3.6-2.4,5.7-6.4,6v3L404.6,89.2z M404.6,73.3v-6.6c-2.3,0.2-3.2,1.6-3.2,3.1S402.1,72.5,404.6,73.3z M406.4,76.7v7.3
	c2.2-0.2,3.4-1.4,3.4-3.5C409.9,78.8,409.1,77.6,406.4,76.7L406.4,76.7z"/>
<g class="st27">
	<path class="st1" d="M84.6,98.5v-3c-3.9-0.3-6.2-2.6-6.5-5.7h2.8c0.3,1.8,1.8,3.2,3.6,3.5v-7.8c-4.3-1.3-6-2.9-6-5.9
		c0-3.3,2.5-5.4,6-5.7v-2.2h1.8v2.2c4.3,0.4,5.7,3.2,5.9,5.2h-2.8c-0.3-1.6-1.5-2.8-3.1-3v7.1c5,1.4,6.4,3.5,6.4,6.4
		c0,3.6-2.4,5.7-6.4,6v3L84.6,98.5z M84.6,82.6V76c-2.3,0.2-3.2,1.6-3.2,3.1C81.4,80.8,82.2,81.8,84.6,82.6z M86.4,85.9v7.3
		c2.2-0.2,3.4-1.3,3.4-3.4C89.8,88.1,89.1,86.9,86.4,85.9z"/>
</g>
<path class="st3" d="M85.5,98.3v-2.9c-3.9-0.3-6.2-2.6-6.5-5.7h2.9c0.3,1.8,1.8,3.2,3.6,3.5v-7.8c-4.3-1.3-6-2.9-6-5.9
	c0-3.3,2.5-5.4,6-5.7v-2.2h1.8v2.2c4.3,0.4,5.7,3.2,5.9,5.2h-2.8c-0.3-1.6-1.5-2.8-3.1-3v7.1c5,1.4,6.4,3.5,6.4,6.4
	c0,3.6-2.4,5.7-6.4,6v2.9H85.5z M85.5,82.4v-6.6c-2.3,0.2-3.2,1.6-3.2,3.1S83,81.6,85.5,82.4z M87.3,85.8v7.3
	c2.2-0.2,3.4-1.4,3.4-3.5C90.8,87.9,90,86.7,87.3,85.8z"/>
<g class="st27">
	<path class="st1" d="M24,238.9v-4c-5.2-0.4-8.3-3.5-8.7-7.7h3.8c0.4,2.5,2.4,4.4,4.9,4.7v-10.6c-5.8-1.8-8.1-3.9-8.1-8
		c0-4.4,3.4-7.3,8.1-7.6v-3h2.5v3c5.8,0.6,7.7,4.3,7.9,7h-3.8c-0.4-2.1-2.1-3.7-4.2-4v9.5c6.7,1.9,8.6,4.7,8.6,8.6
		c0,4.9-3.2,7.7-8.6,8.1v4L24,238.9z M24,217.6v-8.9c-3.1,0.3-4.3,2.1-4.3,4.2S20.7,216.4,24,217.6z M26.5,222.1v9.9
		c3-0.3,4.6-1.8,4.6-4.7C31.1,224.9,30.1,223.4,26.5,222.1z"/>
</g>
<path class="st3" d="M25.2,238.6v-4c-5.2-0.4-8.3-3.5-8.7-7.7h3.9c0.4,2.5,2.4,4.4,4.9,4.7v-10.5c-5.8-1.8-8.1-3.9-8.1-8
	c0-4.4,3.4-7.3,8.1-7.6v-3h2.5v3c5.8,0.6,7.7,4.3,7.9,7h-3.8c-0.4-2.1-2.1-3.7-4.2-4v9.5c6.7,1.9,8.6,4.7,8.6,8.6
	c0,4.9-3.2,7.7-8.6,8.1v4L25.2,238.6z M25.2,217.3v-8.9c-3.1,0.3-4.3,2.1-4.3,4.2S21.9,216.1,25.2,217.3z M27.7,221.8v9.9
	c3-0.3,4.6-1.8,4.6-4.7C32.3,224.7,31.3,223.1,27.7,221.8z"/>
<g class="st27">
	<path class="st1" d="M151.5,151.6h-2.8c-0.3,3.7-2.5,5.9-5.5,6.2v-2.7c1.8-0.3,3.1-1.7,3.3-3.5H139c-1.2,4.1-2.8,5.8-5.7,5.8
		c-3.1,0-5.2-2.4-5.5-5.8h-2.1v-1.7h2.2c0.4-4.1,3.1-5.5,5-5.7v2.7c-1.5,0.3-2.6,1.5-2.9,3h6.8c1.4-4.8,3.4-6.1,6.1-6.1
		c3.5,0,5.5,2.3,5.8,6.1h2.8L151.5,151.6z M136.3,151.6h-6.3c0.2,2.2,1.5,3.1,3,3.1S135.4,153.9,136.3,151.6L136.3,151.6z
		 M139.5,149.8h7c-0.2-2.1-1.3-3.3-3.3-3.3C141.5,146.5,140.4,147.2,139.5,149.8L139.5,149.8z"/>
</g>
<path class="st3" d="M151.3,150.7h-2.8c-0.3,3.7-2.5,5.9-5.5,6.2v-2.7c1.8-0.3,3.1-1.7,3.3-3.5h-7.5c-1.2,4.1-2.8,5.8-5.7,5.8
	c-3.1,0-5.2-2.4-5.5-5.8h-2.1v-1.8h2.1c0.4-4.1,3.1-5.5,5-5.7v2.7c-1.5,0.3-2.6,1.5-2.9,3h6.8c1.4-4.8,3.4-6.1,6.1-6.1
	c3.4,0,5.5,2.3,5.8,6.1h2.8L151.3,150.7z M136,150.7h-6.3c0.2,2.3,1.5,3,3,3S135.2,153.1,136,150.7L136,150.7z M139.3,148.9h7
	c-0.2-2.1-1.3-3.3-3.3-3.3C141.3,145.6,140.2,146.4,139.3,148.9L139.3,148.9z"/>
<g class="st27">
	<path class="st1" d="M184,68.9l-0.5-1.8c-2.5,0.5-4.3-0.5-5.1-2.4l1.8-0.5c0.5,1.1,1.7,1.7,2.9,1.5l-1.4-4.9
		c-2.9,0-4.3-0.7-4.8-2.6c-0.6-2.1,0.6-3.9,2.7-4.7l-0.4-1.4l1.2-0.3l0.4,1.4c2.8-0.5,4.2,1,4.6,2.2l-1.8,0.5
		c-0.5-0.9-1.5-1.4-2.5-1.3l1.3,4.4c3.4,0,4.6,1,5.2,2.8c0.7,2.3-0.4,4-2.9,4.9l0.5,1.8L184,68.9z M181.1,59l-1.2-4.1
		c-1.1,0.3-1.7,1.4-1.4,2.4c0,0,0,0.1,0,0.1C178.8,58.4,179.4,58.9,181.1,59z M182.9,60.8l1.3,4.6c1.1-0.3,1.9-1.4,1.6-2.6
		c0-0.1,0-0.1-0.1-0.2C185.4,61.4,184.8,60.8,182.9,60.8L182.9,60.8z"/>
</g>
<path class="st3" d="M184.6,68.6l-0.5-1.8c-2.5,0.5-4.3-0.5-5.1-2.4l1.8-0.5c0.5,1.1,1.7,1.7,2.9,1.5l-1.4-4.9
	c-2.9,0-4.3-0.7-4.8-2.6c-0.6-2,0.6-3.9,2.7-4.7l-0.4-1.4l1.2-0.3l0.4,1.4c2.8-0.5,4.2,1,4.6,2.2l-1.8,0.5c-0.5-0.9-1.5-1.4-2.5-1.3
	l1.3,4.4c3.4,0,4.6,1,5.2,2.8c0.7,2.3-0.5,4-2.9,4.9l0.5,1.8L184.6,68.6z M181.6,58.6l-1.2-4.1c-1.1,0.3-1.7,1.4-1.4,2.4
	c0,0,0,0.1,0,0.1C179.3,58.1,180,58.6,181.6,58.6L181.6,58.6z M183.4,60.4l1.3,4.6c1.1-0.3,1.9-1.4,1.6-2.6c0-0.1,0-0.1-0.1-0.2
	C186,61.1,185.3,60.5,183.4,60.4L183.4,60.4z"/>
<g class="st27">
	<path class="st1" d="M441.3,253.9l-1.1-0.8c-0.9,1.3-2.6,1.7-4,0.9l0.8-1.1c0.8,0.4,1.7,0.2,2.3-0.4l-3-2.2
		c-1.7,1.3-2.8,1.5-3.9,0.6c-1.2-0.9-1.4-2.6-0.5-3.8c0,0,0,0,0,0l-0.8-0.6l0.5-0.7l0.9,0.6c0.8-1.2,2.4-1.5,3.6-0.8l-0.8,1.1
		c-0.7-0.3-1.5-0.2-2,0.4l2.7,2c1.9-1.5,3.1-1.5,4.2-0.6c1.4,1,1.5,2.5,0.5,4.1l1.1,0.8L441.3,253.9z M435.3,249.5l-2.5-1.8
		c-0.5,0.6-0.4,1.5,0.2,2c0,0,0.1,0.1,0.1,0.1C433.6,250.2,434.2,250.2,435.3,249.5L435.3,249.5z M437.1,249.7l2.8,2
		c0.5-0.7,0.4-1.6-0.2-2.2c0,0-0.1-0.1-0.1-0.1C438.8,249,438.1,248.9,437.1,249.7L437.1,249.7z"/>
</g>
<path class="st3" d="M441.4,253.5l-1.1-0.8c-0.9,1.3-2.6,1.7-4,0.9l0.8-1.1c0.8,0.4,1.7,0.2,2.3-0.4l-3-2.2
	c-1.7,1.3-2.8,1.5-3.9,0.6c-1.2-0.9-1.4-2.6-0.5-3.8c0,0,0,0,0,0l-0.8-0.6l0.5-0.7l0.9,0.6c0.8-1.2,2.4-1.5,3.6-0.8l-0.8,1.1
	c-0.7-0.3-1.5-0.2-2,0.4l2.7,2c1.9-1.5,3.1-1.5,4.2-0.6c1.4,1,1.5,2.5,0.5,4.1l1.1,0.8L441.4,253.5z M435.4,249.1l-2.5-1.8
	c-0.5,0.6-0.4,1.5,0.2,2c0,0,0.1,0.1,0.1,0.1C433.9,249.8,434.4,249.8,435.4,249.1L435.4,249.1z M437.2,249.3l2.8,2
	c0.5-0.7,0.4-1.6-0.2-2.2c0,0-0.1-0.1-0.1-0.1C439,248.6,438.3,248.6,437.2,249.3L437.2,249.3z"/>
<path class="st1" d="M454.3,208.8c-0.6,6.2-6.7,7.7-6.2,13.9c5-1.9,10.3-1.6,15.4-0.3s9.6,4,14.5,5.6c0.2-1.9,0.8-3.8,1.6-5.6
	c0.9-1.8,2.1-3.5,3-5.3c-1.3,0.3-2.6-0.7-3.7-1.5c-4.4-3.2-9.9-4.5-15.3-4.9C462.2,210.7,454.1,211.1,454.3,208.8z"/>
<g class="st27">
	<path class="st1" d="M463.1,220.6l0.4-0.9c-1-0.4-1.6-1.5-1.3-2.6l0.9,0.4c-0.1,0.6,0.1,1.2,0.7,1.5l1-2.4c-1.2-1-1.5-1.7-1.1-2.6
		c0.4-1,1.6-1.4,2.5-1c0,0,0,0,0,0l0.3-0.7l0.6,0.2l-0.3,0.7c0.9,0.4,1.4,1.4,1.1,2.4l-0.9-0.4c0.1-0.5-0.1-1-0.6-1.3l-0.9,2.2
		c1.3,1.1,1.5,1.9,1.1,2.8c-0.4,1-1.6,1.5-2.6,1.1c0,0-0.1,0-0.1-0.1l-0.4,0.9L463.1,220.6z M465.1,215.7l0.9-2
		c-0.5-0.2-1.1-0.1-1.3,0.4c0,0,0,0.1,0,0.1C464.4,214.8,464.5,215.2,465.1,215.7L465.1,215.7z M465.3,217l-1,2.3
		c0.5,0.3,1.2,0,1.5-0.5c0,0,0-0.1,0-0.1C466,218.1,466,217.6,465.3,217L465.3,217z"/>
</g>
<path class="st3" d="M463.4,220.7l0.4-0.9c-1-0.4-1.6-1.5-1.3-2.6l0.9,0.4c-0.1,0.6,0.1,1.2,0.7,1.5l1-2.4c-1.2-1-1.5-1.7-1.1-2.6
	c0.4-1,1.5-1.4,2.5-1c0,0,0,0,0,0l0.3-0.7l0.6,0.2l-0.3,0.7c0.9,0.4,1.4,1.4,1.1,2.4l-0.9-0.4c0.1-0.5-0.1-1-0.6-1.3l-0.9,2.2
	c1.3,1.1,1.5,1.9,1.1,2.8c-0.4,1-1.6,1.5-2.6,1.1c0,0-0.1,0-0.1-0.1l-0.4,0.9L463.4,220.7z M465.4,215.8l0.9-2
	c-0.5-0.2-1.1,0-1.3,0.4c0,0,0,0.1,0,0.1C464.7,214.8,464.8,215.2,465.4,215.8L465.4,215.8z M465.6,217.1l-1,2.3
	c0.5,0.3,1.2,0,1.5-0.5c0,0,0-0.1,0.1-0.1C466.3,218.2,466.3,217.7,465.6,217.1L465.6,217.1z"/>
<g class="st27">
	<path class="st1" d="M440.5,75.9l2.2-0.7c-0.7-3,0.5-5.2,2.8-6.1l0.6,2.1c-1.3,0.7-2,2.1-1.7,3.5l5.8-1.8c0-3.5,0.8-5.1,3-5.8
		c2.4-0.8,4.6,0.6,5.6,3.1l1.6-0.5l0.4,1.4l-1.7,0.5c0.7,3.3-1.1,5-2.5,5.6l-0.6-2.1c1.1-0.6,1.7-1.8,1.5-3l-5.3,1.6
		c0.1,4-1.1,5.6-3.3,6.2c-2.7,0.8-4.8-0.5-5.9-3.4l-2.2,0.7L440.5,75.9z M452.3,72.3l4.9-1.5c-0.3-1.3-1.6-2-2.9-1.7
		c-0.1,0-0.1,0-0.2,0.1C452.9,69.5,452.4,70.3,452.3,72.3z M450.2,74.4l-5.5,1.7c0.7,1.6,1.8,2.2,3.4,1.8
		C449.4,77.5,450.1,76.7,450.2,74.4L450.2,74.4z"/>
</g>
<path class="st3" d="M440.9,76.6l2.2-0.7c-0.7-3,0.5-5.2,2.8-6.1l0.7,2.1c-1.3,0.6-2,2.1-1.7,3.5l5.8-1.8c0-3.5,0.8-5.1,3-5.8
	c2.4-0.8,4.6,0.6,5.6,3.1l1.6-0.5l0.4,1.4l-1.7,0.5c0.7,3.3-1.1,5-2.5,5.6l-0.6-2.1c1.1-0.6,1.7-1.8,1.5-3l-5.3,1.6
	c0.1,4-1.1,5.6-3.3,6.2c-2.7,0.8-4.8-0.5-5.9-3.4l-2.2,0.7L440.9,76.6z M452.7,72.9l4.9-1.5c-0.3-1.3-1.6-2-2.9-1.7
	c-0.1,0-0.1,0-0.2,0.1C453.3,70.1,452.7,70.9,452.7,72.9z M450.6,75.1l-5.4,1.7c0.7,1.6,1.8,2.2,3.4,1.8
	C449.8,78.1,450.5,77.3,450.6,75.1L450.6,75.1z"/>
<g class="st27">
	<path class="st1" d="M56.7,263.5l0.3-1.3c-1.5-0.3-2.5-1.6-2.3-3.1l1.3,0.3c0,0.8,0.5,1.6,1.3,1.9l0.7-3.5c-1.8-1-2.4-1.9-2.1-3.2
		c0.3-1.4,1.7-2.3,3.1-2c0,0,0,0,0,0l0.2-1l0.8,0.2l-0.2,1c1.3,0.3,2.3,1.5,2.1,2.9l-1.2-0.3c0-0.7-0.4-1.4-1.1-1.6l-0.7,3.2
		c2.1,1.1,2.5,2.1,2.3,3.4c-0.3,1.6-1.6,2.3-3.4,2.1l-0.3,1.3L56.7,263.5z M58.1,256.4l0.6-2.9c-0.7-0.2-1.5,0.3-1.7,1
		c0,0,0,0.1,0,0.1C56.8,255.3,57.1,255.8,58.1,256.4L58.1,256.4z M58.6,258.1l-0.7,3.3c0.8,0.2,1.6-0.2,1.8-1c0-0.1,0-0.1,0-0.2
		C60,259.4,59.8,258.8,58.6,258.1z"/>
</g>
<path class="st1" d="M57.1,263.5l0.3-1.3c-1.5-0.3-2.5-1.6-2.3-3.1l1.3,0.3c0,0.8,0.5,1.6,1.3,1.9l0.7-3.5c-1.8-1-2.4-1.9-2.1-3.2
	c0.3-1.4,1.7-2.3,3.1-2c0,0,0,0,0.1,0l0.2-1l0.8,0.2l-0.2,1c1.3,0.3,2.3,1.5,2.1,2.9l-1.2-0.3c0-0.7-0.4-1.4-1.1-1.6l-0.7,3.1
	c2.1,1.1,2.5,2.1,2.3,3.4c-0.3,1.6-1.6,2.3-3.4,2.1l-0.3,1.3L57.1,263.5z M58.6,256.4l0.6-2.9c-0.7-0.2-1.5,0.2-1.7,1
	c0,0,0,0.1,0,0.1C57.3,255.3,57.5,255.8,58.6,256.4z M59.1,258.1l-0.7,3.3c0.8,0.2,1.6-0.3,1.8-1.1c0-0.1,0-0.1,0-0.2
	C60.4,259.4,60.2,258.8,59.1,258.1z"/>
<g class="st27">
	<path class="st1" d="M88.9,168.9v-5.5c-7.3-0.6-11.6-4.9-12.2-10.8h5.4c0.6,3.4,3.4,6.1,6.8,6.5v-14.7c-8.1-2.4-11.3-5.5-11.3-11.1
		c0-6.2,4.8-10.2,11.3-10.7v-4.1h3.5v4.2c8.1,0.8,10.7,6,11.1,9.8h-5.2c-0.6-2.9-2.9-5.2-5.8-5.6V140c9.3,2.7,12,6.6,12,12
		c0,6.8-4.5,10.7-12,11.3v5.5L88.9,168.9z M88.9,139v-12.4c-4.4,0.4-6,3-6,5.9S84.3,137.4,88.9,139z M92.4,145.3v13.8
		c4.2-0.4,6.5-2.6,6.5-6.5C98.8,149.4,97.4,147.1,92.4,145.3z"/>
</g>
<path class="st3" d="M90.6,168.4v-5.5c-7.3-0.6-11.6-4.9-12.2-10.8h5.4c0.6,3.4,3.4,6.1,6.8,6.5v-14.8c-8.1-2.4-11.3-5.5-11.3-11.1
	c0-6.2,4.8-10.2,11.3-10.7v-4.1h3.5v4.2c8.1,0.8,10.7,6,11.1,9.8h-5.2c-0.6-2.9-2.9-5.2-5.8-5.6v13.3c9.3,2.7,12,6.6,12,12
	c0,6.8-4.5,10.7-12,11.3v5.5L90.6,168.4z M90.6,138.6v-12.4c-4.4,0.4-6,3-6,5.9S86,137,90.6,138.6z M94,144.9v13.8
	c4.2-0.4,6.5-2.6,6.5-6.5C100.5,148.9,99.1,146.7,94,144.9z"/>
<path class="st1" d="M375.1,86.5C352,123.6,303,195.8,297.9,239.3c-1.3,10.8-1.5,21.7-1.9,32.6c-0.1,2.9-0.1,7.7-1.6,10.1
	c-2.5,4.1-8.1,3.4-12.8,3.9c-16.9,1.7-34.8,1.9-52,1.7c-12.6-0.1-24.8-0.3-35.9-0.3c-0.7-12.7-1.9-27-2.6-39.7
	c-0.6-11.4-1.3-22.9-4.5-33.9c-2.8-9.2-7.4-17.7-11.9-26.1c-17.7-32.4-36.3-64.4-55.5-95.9c-1.3-2.1-7.4-9.8-6.7-12.1
	c0.1-0.2,0.2-0.4,0.3-0.6c0.6-1,1.3-1.9,2.3-2.7c3-2.6,6.3-4.7,9.9-6.3c0.8-0.4,1.6-0.6,2.5-0.6c1.2,0.1,7,6.4,7.9,7.3l49.6,50.4
	c10.7,10.9,22.9,14.3,37.5,18.7c6.6,2,13.6,2.4,20.5,2.5c16.2,0.1,36,0.3,48.1-11.5c14.4-14.1,55.3-52.3,68.6-67.4l14.3,8.4
	c1,0.5,1.9,1.2,2.5,2.1C377.6,81.9,376.4,84.5,375.1,86.5z"/>
<linearGradient id="SVGID_23_" gradientUnits="userSpaceOnUse" x1="240.8114" y1="193.3324" x2="267.1513" y2="193.3324" gradientTransform="matrix(1 0 0 -1 -7.15 340.95)">
	<stop  offset="0" style="stop-color:#E5C6D6"/>
	<stop  offset="0.42" style="stop-color:#EAD4D0"/>
	<stop  offset="1" style="stop-color:#F0E9CB"/>
</linearGradient>
<path class="st28" d="M239.6,163.3c3.8,3.2,9.1,3.8,13.6,1.7c1.8-0.7,3.3-2,4.3-3.6c0.8-1.7,1.3-3.6,1.4-5.5l0.7-6.4
	c0.5-3.4,0.6-6.9,0.3-10.4c-0.4-3.4-1.6-6.6-4-8.4c-3.1-2.4-7.6-1.9-11.4,0.2C232.1,137.6,230.2,155.1,239.6,163.3z"/>
<linearGradient id="SVGID_24_" gradientUnits="userSpaceOnUse" x1="246.9604" y1="175.7299" x2="258.9704" y2="222.2099" gradientTransform="matrix(1 0 0 -1 -7.15 340.95)">
	<stop  offset="0" style="stop-color:#010101;stop-opacity:0"/>
	<stop  offset="0.95" style="stop-color:#010101"/>
</linearGradient>
<path class="st29" d="M258.1,137.3c0,0-9.2,23-22.7,18.4c0,0-3.6-0.8-0.3-15.3S258.1,137.3,258.1,137.3z"/>
<linearGradient id="SVGID_25_" gradientUnits="userSpaceOnUse" x1="226.5019" y1="228.0103" x2="278.0254" y2="228.0103" gradientTransform="matrix(1 0 0 -1 -7.15 340.95)">
	<stop  offset="0" style="stop-color:#E5C6D6"/>
	<stop  offset="0.42" style="stop-color:#EAD4D0"/>
	<stop  offset="1" style="stop-color:#F0E9CB"/>
</linearGradient>
<path class="st30" d="M219.7,119.4c1.1,9.1,5.1,18.4,13.1,22.7c7.4,4,16.7,2.7,24.1-1.2c3.1-1.5,5.8-3.8,8-6.5
	c1.8-2.8,3.1-5.8,3.8-9c1.5-5.4,2.6-11,2.1-16.6c-1.4-16.5-15.8-28.7-32.3-27.3c-3.1,0.3-6.1,1-9,2.2c-6.3,2.6-9.1,6.5-9.4,13.2
	C219.7,104.3,218.9,111.9,219.7,119.4z"/>
<path class="st22" d="M216,97.9c0-2.8,0.5-5.7-0.3-8.5c-0.7-2.6-2.4-4.7-3.3-7.2c-1.5-4.4-0.6-9.3,2.6-12.8c1.9-1.9,4.2-3.4,6.8-4.1
	c3.3-1,6.8-1.1,10.2-0.3c2.1,0.5,4.1,1.4,6.2,1.9c3,0.6,6.1,0.4,9.2,0.4c4.9,0,9.9,0.5,14.3,2.6c4.4,2.1,8.3,5.8,9.5,10.6
	c0.2,1.3,0.6,2.6,1.2,3.8c0.8,1,1.7,1.9,2.6,2.8c2,2.3,2.3,5.5,2.5,8.5c0.3,2.4,0.2,4.8-0.4,7.1c-0.7,2.1-2.3,3.9-3.4,5.8
	c-1.5,2.7-2.6,5.5-3.5,8.5c-0.6-1.1-0.4-2.4-0.5-3.7s-0.9-2.7-2.1-2.7c-1,0.1-1.8,0.8-2.1,1.8c-0.3,0.9-0.7,1.8-1.2,2.7
	c-0.2,0.4-0.6,0.6-1,0.5c-0.3-0.1-0.5-0.5-0.6-0.8c-0.9-3,0.1-6.2,0.3-9.4c0.2-4.8-1.7-9.4-5.1-12.7c-3.3-3-7.5-4.9-11.9-5.4
	c-4.4-0.5-8.9-0.5-13.3,0c-2.6,0.2-5.3,0.5-7.4,2c-2.4,1.6-3.7,4.5-4.4,7.3c-0.6,2.3-0.4,6.9-2,8.5
	C216.6,103.8,216.1,100.3,216,97.9z"/>
<path class="st3" d="M38.3,187.4c0,0,0.3,4.8-1.4,5.4l7.9,9.7c0,0,3.3-2.6,5.5-1.3c0,0,6.6-9.1,11.6-13.7s8.2-7.2,8.2-7.2
	s-6.2-7.5-8.7-9s-4.2-2.4-4.2-2.4S51.8,169.6,38.3,187.4z"/>
<linearGradient id="SVGID_26_" gradientUnits="userSpaceOnUse" x1="59.08" y1="144.9551" x2="75.6553" y2="144.9551" gradientTransform="matrix(1 0 0 -1 -7.15 340.95)">
	<stop  offset="0" style="stop-color:#010101;stop-opacity:0"/>
	<stop  offset="0.95" style="stop-color:#010101"/>
</linearGradient>
<path class="st31" d="M53.7,203.4c0,0,12.3-18.7,14.1-17.7s-0.8,9.6-1.6,11.2s-7.6,6.6-7.6,6.6l-6.7,3L53.7,203.4z"/>
<linearGradient id="SVGID_27_" gradientUnits="userSpaceOnUse" x1="203.6522" y1="168.9239" x2="-55.8378" y2="76.9839" gradientTransform="matrix(1 0 0 -1 -7.15 340.95)">
	<stop  offset="0" style="stop-color:#010101;stop-opacity:0"/>
	<stop  offset="0.95" style="stop-color:#010101"/>
</linearGradient>
<path class="st32" d="M219.6,287.6l-25.9-0.3c-0.7-12.7-1.9-27-2.6-39.7c-0.6-11.4-1.3-22.9-4.5-33.9c-2.8-9.2-7.4-17.7-11.9-26.1
	c-17.7-32.4-36.3-64.4-55.5-95.9c-1.3-2.1-7.4-9.8-6.7-12.1c0.1-0.2,0.2-0.4,0.3-0.6l6.1-4.9l3.8,8.2c0,0,55.2,78.3,68.8,88.6
	s23.2,34.7,22.5,40.2c-0.6,4.9,13.1,61.6,16,74.2C230.2,286.7,219.6,287.6,219.6,287.6z"/>
<g class="st27">
	<path class="st1" d="M62.2,183.6l-1-1.2c-1.4,1.1-3.4,1.1-4.6-0.2l1.2-1c0.7,0.6,1.8,0.7,2.7,0.2l-2.7-3.2
		c-2.2,0.9-3.5,0.8-4.5-0.4c-1.1-1.3-0.8-3.3,0.5-4.4c0,0,0,0,0,0l-0.7-0.9l0.8-0.6l0.8,0.9c1.2-1,3-1,4.2,0.1l-1.2,0.9
		c-0.7-0.5-1.6-0.6-2.3-0.2l2.4,2.9c2.5-1.1,3.8-0.7,4.8,0.5c1.2,1.5,1,3.1-0.6,4.6l1,1.2L62.2,183.6z M56.8,177.1l-2.2-2.7
		c-0.7,0.5-0.9,1.5-0.3,2.3c0,0,0.1,0.1,0.1,0.1C54.8,177.4,55.5,177.6,56.8,177.1z M58.8,177.8l2.5,3c0.8-0.6,0.9-1.7,0.4-2.4
		c0-0.1-0.1-0.1-0.1-0.2C60.8,177.5,60.1,177.3,58.8,177.8L58.8,177.8z"/>
</g>
<path class="st1" d="M62.5,183.2l-1-1.2c-1.3,1.2-3.3,1.1-4.6-0.1l1.2-1c0.8,0.6,1.8,0.7,2.7,0.2l-2.7-3.2c-2.2,0.9-3.5,0.8-4.5-0.4
	c-1.1-1.3-0.8-3.3,0.5-4.3c0,0,0,0,0,0l-0.8-0.9l0.8-0.6l0.8,0.9c1.2-1,3-1,4.2,0.1l-1.1,1c-0.7-0.5-1.6-0.6-2.3-0.2l2.4,2.9
	c2.5-1.1,3.8-0.7,4.8,0.4c1.2,1.5,1,3.2-0.6,4.6l1,1.2L62.5,183.2z M57.1,176.7l-2.3-2.7c-0.7,0.5-0.9,1.5-0.3,2.3
	c0,0,0.1,0.1,0.1,0.1C55.2,176.9,55.8,177.1,57.1,176.7z M59,177.4l2.5,3c0.8-0.6,0.9-1.7,0.3-2.5c0,0-0.1-0.1-0.1-0.1
	C61.1,177.1,60.4,176.9,59,177.4z"/>
</svg>
