<?xml version="1.0" encoding="utf-8"?>
<!-- Generator: Adobe Illustrator 22.0.1, SVG Export Plug-In . SVG Version: 6.00 Build 0)  -->
<svg version="1.1" id="Réteg_1" xmlns="http://www.w3.org/2000/svg" xmlns:xlink="http://www.w3.org/1999/xlink" x="0px" y="0px"
	 viewBox="0 0 835.7 166" style="enable-background:new 0 0 835.7 166;" xml:space="preserve">
<style type="text/css">
	.st0{fill:#57BC90;}
	.st1{fill:#489972;}
</style>
<g>
	<path d="M219.7,125.9v6.6h-16.6v-93h16.6v33.8c4.6-5.7,11.5-8,18.5-8c18.5,0,28.4,15.9,28.4,34.2c0,18.2-9.9,34.2-28.2,34.2
		C231.6,133.8,224.3,131.6,219.7,125.9z M250.4,99.6c0-10.9-4.9-19.7-16-19.7c-11.1,0-16.2,8.6-16.2,19.7c0,11.1,5.1,19.4,16.2,19.4
		C245.5,119,250.4,110.5,250.4,99.6z"/>
	<path d="M274.2,99.5c0-18.6,13.4-34.1,33.7-34.1s33.7,15.5,33.7,34.1c0,18.6-13.4,34.4-33.7,34.4S274.2,118.1,274.2,99.5z
		 M324.9,99.5c0-10.8-4.8-20.2-17-20.2c-12.1,0-17,9.4-17,20.2s4.9,20.5,17,20.5C320.1,120,324.9,110.3,324.9,99.5z"/>
	<path d="M354.6,66.8h15.7v11.1c2.8-8,10.3-12.4,17.6-12.4c4.3,0,8.9,1.5,12,4.7l-7.3,13.2c-2.2-1.4-4.6-2.2-7.2-2.2
		c-7.5,0-15.3,7-15.3,23.7v27.8h-15.5V66.8z"/>
	<path d="M400.5,115.4l12.8-5.7c1.8,4.7,5.3,10.8,14,10.8c7.4,0,10.7-4.3,10.7-7.8c0-11.1-33-3.6-33-26.9
		c0-13.9,11.7-20.5,24.4-20.5c11.3,0,19.9,5.4,24.9,14.3l-12.4,6.8c-2.2-4.1-5.9-8.4-13-8.4c-5.3,0-8.5,2.6-8.5,5.7
		c0,9.9,33.4,4,33.4,28.2c0,15.2-13.2,21.9-25.7,21.9C414.3,133.8,403.7,125.5,400.5,115.4z"/>
	<path d="M468.1,66.8h16.2v6.8c4.3-5.9,10.5-8.2,16.7-8.2c8,0,14.2,3.8,18.5,11.6c5.1-8.1,13.3-11.6,21.8-11.6
		c16.9,0,24.3,13.8,24.3,27.6v39.5h-16.3V95.1c0-8.1-2.3-14.7-10.6-14.7c-8.7,0-13.8,7.3-13.8,16.1v36.1h-16.3V94.8
		c0-8-2.2-14.5-10.4-14.5c-8.8,0-13.9,7.3-13.9,16.1v36.1h-16.2V66.8z"/>
	<path d="M576.9,99.9c0-17.1,10-34.5,32.3-34.5c23,0,30.5,18.5,30.5,33.2c0,2.7-0.3,5.4-0.6,6.3h-45.2c1.4,8.6,6.1,14.4,16.5,14.4
		c5.9,0,11.2-1.8,15.8-7l11.1,9.7c-7.2,8-15.9,11.8-27,11.8C587.6,133.8,576.9,117.6,576.9,99.9z M623.9,93.3
		c-1.1-9.4-6.5-14.4-14.8-14.4c-9.5,0-13.6,6.2-15.1,14.4H623.9z"/>
	<path d="M653.1,66.8H669v7.6c5.3-6.5,13-9,19.4-9c17.2,0,23.8,13.9,23.8,27.6v39.5h-15.9V95.1c0-8.6-4.3-14.9-12.6-14.9
		c-9,0-14.8,4.9-14.8,16.3v36h-15.9V66.8z"/>
	<path d="M732.2,114.4V80.2h-10.6V66.8h10.9V50.4L748.1,39v27.8h16.6v13.4h-16.6v31.3c0,6.3,3.2,8.2,7.4,8.2c3.4,0,7-1.3,9.1-2.4
		v14.5c-2.4,0.9-7.3,2-11.8,2C739.9,133.8,732.2,126.3,732.2,114.4z"/>
	<path d="M773.2,112.3c0-14.3,11.5-19,26.2-19h17.1c0-8.4-4.5-13.9-13-13.9c-7.6,0-12.6,4.5-15.5,9.3l-12.3-8.9
		c6.3-8.6,14.7-14.4,27.6-14.4c17.9,0,28.4,11.2,28.4,27.3v39.9h-13.2l-1.1-9.4c-5.7,8.2-12.6,10.7-20.5,10.7
		C783.6,133.8,773.2,126.1,773.2,112.3z M816.5,104.9h-16.2c-7.3,0-10.7,3.8-10.7,8c0,4.3,3.5,7.4,9.7,7.4
		C808.6,120.3,816.3,113.1,816.5,104.9z"/>
</g>
<path class="st0" d="M139.7,118.6c0,3.5-0.3,6.8-1,9.9c-0.2,1-0.5,2.1-0.7,3.1c-0.5,1.7-1,3.4-1.7,5c-0.2,0.5-0.4,1.1-0.7,1.6
	c-0.5,1.1-1,2.1-1.5,3.1c-0.6,1-1.1,2-1.7,3c-0.6,1-1.2,1.9-1.9,2.9c-0.7,0.9-1.4,1.8-2.1,2.7c-4.9,6.1-10.9,11.4-17.4,16.2v-41.3
	c0-0.8-0.3-1.5-0.8-2L71.8,84.5c-0.5-0.5-1.3-0.8-2-0.8c-0.8,0-1.5,0.3-2.1,0.8l-38.2,38.2c-0.5,0.5-0.8,1.3-0.8,2V166
	C13.3,154.4,0,140.2,0,118.6C0,76.1,69.8,0,69.8,0S74.8,5.4,82,14.1c0.4,0.5,0.9,1,1.3,1.6c0.2,0.3,0.5,0.5,0.7,0.8
	c0.9,1.1,1.8,2.2,2.8,3.4c0.2,0.3,0.5,0.6,0.7,0.9c0.5,0.6,1,1.2,1.5,1.8c1.7,2.2,3.5,4.4,5.3,6.8c0.5,0.7,1,1.4,1.6,2.1
	c0.8,1,1.6,2.1,2.4,3.1s1.6,2.2,2.4,3.3c4.9,6.6,9.9,13.7,14.6,21c0.5,0.8,1.1,1.6,1.6,2.4c0.3,0.4,0.5,0.8,0.8,1.2
	c0.5,0.8,1,1.6,1.5,2.5c0.3,0.4,0.5,0.8,0.8,1.2c0.5,0.8,1,1.6,1.5,2.5c0.5,0.8,1,1.6,1.4,2.5c0.7,1.2,1.4,2.5,2.1,3.7
	c0.5,0.8,0.9,1.7,1.3,2.5c0.5,0.8,0.9,1.6,1.3,2.5c0.6,1.2,1.3,2.5,1.9,3.7c0.7,1.4,1.4,2.9,2,4.3c0.6,1.4,1.3,2.8,1.8,4.2
	c2.5,6,4.4,11.8,5.5,17.3c0.2,1.1,0.4,2.2,0.5,3.2C139.5,114.5,139.7,116.6,139.7,118.6z"/>
<path class="st1" d="M139.7,118.6c0,4.6-0.6,9-1.7,13c-0.5,1.7-1,3.4-1.7,5c-0.2,0.5-0.4,1.1-0.7,1.6c-0.5,1.1-1,2.1-1.5,3.1
	c-0.5,1-1.1,2-1.7,3c-0.6,1-1.2,1.9-1.9,2.9c-0.7,0.9-1.4,1.8-2.1,2.7c-4.9,6.1-10.9,11.4-17.4,16.2v-41.3c0-0.8-0.3-1.5-0.8-2
	L71.8,84.5c-0.5-0.5-1.3-0.8-2-0.8V0c0,0,4.9,5.4,12.2,14.1c0.4,0.5,0.9,1,1.3,1.6c0.2,0.3,0.5,0.5,0.7,0.8c0.9,1.1,1.8,2.2,2.8,3.4
	c0.2,0.3,0.5,0.6,0.7,0.9c0.5,0.6,1,1.2,1.5,1.8c1.7,2.2,3.5,4.4,5.3,6.8c0.5,0.7,1,1.4,1.6,2.1c0.8,1,1.6,2.1,2.4,3.1
	s1.6,2.2,2.4,3.3c4.9,6.6,9.9,13.7,14.6,21c0.5,0.8,1.1,1.6,1.6,2.4c0.3,0.4,0.5,0.8,0.8,1.2c0.5,0.8,1,1.6,1.5,2.5
	c0.3,0.4,0.5,0.8,0.8,1.2c0.5,0.8,1,1.6,1.5,2.5c0.5,0.8,1,1.6,1.4,2.5c0.7,1.2,1.4,2.5,2.1,3.7c0.5,0.8,0.9,1.7,1.3,2.5
	c0.5,0.8,0.9,1.6,1.3,2.5c0.6,1.2,1.3,2.5,1.9,3.7c1.4,2.9,2.7,5.7,3.9,8.5C137.2,101.5,139.7,110.6,139.7,118.6z"/>
<path class="st0" d="M76.1,147H63.6c-2.2,0-4-1.8-4-4v-12.5c0-2.2,1.8-4,4-4h12.5c2.2,0,4,1.8,4,4V143C80.1,145.2,78.3,147,76.1,147
	z"/>
<path class="st1" d="M80.1,130.5V143c0,2.2-1.8,4-4,4h-6.3v-20.5h6.3C78.3,126.5,80.1,128.3,80.1,130.5z"/>
</svg>
